
<svg width="669" height="607" viewBox="0 0 669 607" fill="none" xmlns="http://www.w3.org/2000/svg">
<g opacity="0.5" clip-path="url(#clip0_3068_1867)">
<path d="M391.432 560.74L390.763 560.673L390.495 560.071L390.629 559.804L391.298 559.403L391.699 559.536L391.766 560.472L391.432 560.74ZM175.01 393.48L175.211 393.547V393.882L175.278 395.018L174.341 394.951L174.074 395.285L173.405 394.951L173.338 394.149L173.472 393.614L174.074 393.48H175.01Z" fill="#F6F7F9" stroke="#C4CEDC" stroke-width="2" stroke-linecap="round" stroke-linejoin="round"/>
<path d="M253.016 366.807L253.217 369.548L255.157 374.495L258.903 378.439L263.72 381.915L264.456 382.651L265.459 387.665V389.536L265.259 389.937L264.389 390.873L262.716 391.876L260.776 392.411L257.097 391.408L255.826 390.673L255.023 389.67L254.153 389.469L250.206 387.531L247.396 386.795L246.861 387.464L247.463 390.806L248.534 393.882L248.6 394.817L248.132 395.62L248.4 396.489L249.203 397.959V400.032L248.467 401.569L239.234 406.984L237.763 407.185L231.942 406.851L228.464 407.72V407.786L227.861 407.252L226.59 406.316L222.509 404.845L221.907 398.561L221.305 395.887L220.168 394.617L219.967 392.545L221.974 387.798L221.372 385.726L219.365 384.322L216.087 382.517L213.411 379.843L212.006 378.038L206.119 378.84L205.851 377.838L206.186 376.501L206.387 375.297L206.52 374.696L206.453 373.091L204.848 367.409V365.002L205.383 363.732L206.253 362.529L207.457 361.66L210.133 360.523L214.281 356.78L216.555 353.705L219.031 355.242L225.119 357.649L226.925 357.582L227.995 357.716L240.84 369.147H242.044L245.991 369.682L247.865 368.679L249.604 367.142L251.812 366.74L253.016 366.807Z" fill="#F6F7F9" stroke="#C4CEDC" stroke-width="2" stroke-linecap="round" stroke-linejoin="round"/>
<path d="M218.964 445.022L218.629 445.089L218.295 444.754L217.96 443.885L217.693 443.15L217.492 442.682L217.893 442.415L218.897 442.883L219.231 443.083L219.097 443.752L219.164 444.42L218.964 445.022ZM310.416 516.819L308.944 517.688L308.476 517.822L306.87 517.755L305.131 517.354L304.529 517.287L302.321 517.554L301.92 517.487L301.251 517.822L300.849 518.022L300.314 519.092L297.638 517.955L296.902 517.153L296.835 516.351L297.17 515.883L297.772 515.616L298.508 515.549H299.11L299.913 515.482L300.314 515.081L300.046 514.212L299.444 513.744L298.039 513.209L297.504 512.741L297.237 512.273L296.701 511.003L296.501 510.602L293.892 507.928L292.754 506.992L291.483 506.457L285.328 505.12L283.99 504.452L279.91 500.641L278.638 499.839L277.234 499.237L275.561 498.97L273.153 499.304L272.617 499.104L272.015 498.703L270.744 498.769L269.406 499.104L267.265 499.505L265.861 499.304L262.917 498.636L262.516 498.569L262.315 498.301L262.248 497.9L261.98 497.432L260.91 497.299L259.438 496.831L258.702 496.029L257.899 494.692L257.03 494.157L256.762 495.293L256.093 495.36L255.424 493.02L254.755 492.018L254.22 490.614L252.882 488.474L251.611 487.137L251.41 486.335L252.146 484.263V483.193L251.41 482.057L250.206 480.987L249.805 480.452L248.533 478.514L247.396 477.31L247.129 476.909L245.055 471.695L244.787 470.492L244.72 465.411L244.319 463.74L243.516 462.269L242.646 461.266L241.509 460.531L240.037 460.197L238.632 460.13L237.963 459.929L237.696 459.528L237.428 458.726L235.756 456.654L235.488 455.918L235.287 454.849L235.421 453.846L236.157 453.445L236.826 453.712L237.495 454.247L238.097 454.983L238.432 455.651L238.766 455.317L238.565 454.715L238.632 454.247L238.833 453.98L239.569 453.311L239.77 452.91L239.903 452.041L239.836 451.172L239.502 450.57L238.833 450.771L238.565 449.568L238.298 449.167L237.896 448.832L237.094 449.167L236.96 448.966L236.893 448.297L236.759 447.763L235.889 447.629L233.213 447.763L232.544 447.896L231.675 448.431L230.671 448.297L229.935 447.629L229.601 446.559L229.534 445.557L229.668 445.089L229.935 444.621L230.47 443.417L230.738 443.15L231.273 443.685L231.407 442.08L231.541 441.813L231.206 441.679L230.939 441.479L230.537 440.677L230.805 439.741V438.136L230.604 436.599L230.337 435.529L229.868 434.727L229.199 433.791L228.664 433.524V434.727L228.463 434.259L227.46 432.788L225.654 431.251L225.386 430.783L225.118 430.047L224.583 429.312L223.446 428.176L221.372 427.373L221.104 426.905L220.837 426.17L220.369 425.368L219.432 424.365L218.495 422.961L216.957 420.087L216.087 418.883L215.485 418.349L214.013 417.413L212.675 416.076L212.474 415.407L212.407 414.672L212.274 414.204H212.876L212.943 413.936L212.742 413.669L212.274 413.402L212.675 412.065L211.872 409.792L212.073 408.789L211.605 408.388L211.069 407.653L210.601 406.85L210.4 406.182L210.2 405.781L209.397 405.313L211.672 404.176L215.217 403.575L217.224 404.577L222.509 404.845L226.59 406.316L227.861 407.251L228.463 407.786V409.859L229.4 412.733L231.139 414.471L233.213 418.75L235.22 419.552L242.847 420.087L247.597 421.624L249.938 424.231L251.812 428.51L254.22 432.387L256.428 434.727L259.237 435.73L262.248 438.537L277.769 467.818L278.572 471.361L283.656 485.734L284.526 487.137L286.064 487.739L287.202 488.408L289.811 491.483L294.494 501.978L299.043 507.594L303.525 511.805L310.416 516.819Z" fill="#F6F7F9" stroke="#C4CEDC" stroke-width="2" stroke-linecap="round" stroke-linejoin="round"/>
<path d="M393.573 236.115L393.974 264.326L393.037 267.267L390.094 272.415L388.087 273.819L385.411 274.086L381.999 275.958L380.126 278.231L378.52 285.183L377.45 288.258L376.112 290.732L374.172 293.071L370.559 295.211L333.898 307.845L322.993 305.305L320.451 305.372L317.106 306.709L315.032 308.046L313.493 309.316L311.286 310.586L308.81 311.322L307.405 312.257L307.138 313.594L308.141 326.162L307.807 328.769L306.402 334.519L305.733 339.465L305.332 340.468L305.465 343.276L306.937 349.292H306.87L295.096 352.702H292.487L284.793 350.964L283.188 349.56L282.853 345.816L282.385 344.68L281.783 344.613L277.033 347.153L276.364 348.089L275.36 348.557L270.744 351.699L268.135 352.033L264.79 351.231L264.656 352.434L265.459 354.373L266.53 355.443L267.868 355.977L269.406 356.245L271.413 357.782L272.417 360.523L271.547 363.264L270.878 367.409L267.934 374.696L267.667 378.239L268.001 380.578V381.915L267.065 382.25L264.456 382.651L263.72 381.915L258.903 378.439L255.157 374.495L253.216 369.548L253.016 366.807L253.35 365.403L253.417 362.261L250.273 351.833L249.537 347.22L249.738 345.014L250.875 344.145L252.347 343.543L252.28 342.273L251.209 340.936L250.54 339.733L250.674 338.463L252.079 337.527L253.15 335.321L252.547 331.109L250.741 327.834L246.727 324.758L244.921 322.953L240.505 319.544L240.171 316.335L240.372 313.327L239.569 312.124L239.301 310.92L238.766 310.386L237.896 310.118L237.495 309.115L237.16 307.244L235.822 306.107L234.351 306.308L233.548 307.177L232.143 307.645L227.594 307.778L226.256 308.046L222.376 310.586L220.837 310.92L219.766 310.519L218.027 310.92L215.819 310.653L213.679 308.915L211.605 307.712L210.066 308.046L208.929 308.581L207.724 308.781L205.383 308.514L198.559 312.191L199.496 309.115L200.232 307.979L198.76 306.04L195.281 304.703L192.271 304.904L190.397 303.901L188.725 299.756V299.355L188.926 298.353L189.394 297.55L190.197 297.016L192.94 296.08L194.545 294.943L195.147 289.996L197.154 287.657L202.306 286.253L203.108 285.718L203.175 284.983L203.376 283.98L206.855 276.961L206.788 275.156L206.922 272.95L207.724 271.278L210.601 268.872L216.087 265.596L230.47 261.852L232.678 260.449L234.618 258.844L236.759 258.109H238.766L239.703 256.504L242.981 248.482L243.382 246.009L242.446 245.474L241.71 243.669L242.713 235.447L243.115 234.243L244.453 232.906L247.731 231.502L255.223 230.633L257.899 230.767L269.54 227.759L276.23 231.369L279.642 231.903L289.075 231.302L291.416 231.703L306.134 236.583L307.941 236.85L390.495 234.377L392.435 234.979L393.238 235.714L393.573 236.115Z" fill="#F6F7F9" stroke="#C4CEDC" stroke-width="2" stroke-linecap="round" stroke-linejoin="round"/>
<path d="M306.937 349.292L315.768 352.635L320.986 357.448L325.401 362.863L333.496 383.319L339.25 393.614L344.736 400.366L346.274 403.04L347.479 411.797L348.482 414.204L353.834 418.282L360.859 421.825V422.627L361.795 425.769L364.605 431.585L365.006 433.123L365.809 434.46L366.612 435.329L368.151 436.264L376.045 437L378.119 437.869L385.076 455.25L387.083 461.266V462.403L385.946 463.205L386.147 465.077L396.516 475.171L397.453 477.645L397.051 482.057L395.312 488.474L395.111 490.079L395.312 491.349L398.189 493.756L399.861 496.43L399.661 498.636L399.058 499.638L398.256 500.173L397.252 500.641L395.245 500.508L392.034 501.377L387.351 503.917L386.013 506.056L384.876 509.532L382.869 511.404L378.52 512.741L369.355 511.404L366.144 512.139L364.471 512.875L362.799 512.34L360.725 512.073L351.493 512.875L347.88 514.145L346.408 516.017L345.873 519.092L345.137 521.231V521.632L345.538 522.769L344.602 524.306L340.989 526.245L330.419 524.373H329.482L327.007 524.975L326.405 524.908L325.803 524.64L322.859 522.234L321.588 521.699L313.895 521.031L311.352 518.624L310.416 516.819L303.525 511.805L299.043 507.594L294.494 501.978L289.811 491.483L287.202 488.408L286.064 487.739L284.526 487.137L283.656 485.734L278.571 471.361L277.769 467.818L262.248 438.537L259.237 435.73L256.428 434.727L254.22 432.387L251.811 428.51L249.938 424.231L247.597 421.624L242.847 420.087L235.22 419.552L233.213 418.75L231.139 414.471L229.4 412.733L228.463 409.859V407.786V407.719L231.942 406.85L237.762 407.185L239.234 406.984L248.466 401.569L249.202 400.032V397.959L248.4 396.489L248.132 395.62L248.6 394.817L248.533 393.881L247.463 390.806L246.861 387.464L247.396 386.795L250.206 387.531L254.153 389.469L255.023 389.67L255.825 390.673L257.097 391.408L260.776 392.411L262.716 391.876L264.389 390.873L265.258 389.937L265.459 389.536V387.664L264.456 382.651L267.065 382.249L268.001 381.915V380.578L267.667 378.238L267.934 374.695L270.878 367.409L271.547 363.264L272.417 360.523L271.413 357.782L269.406 356.245L267.867 355.977L266.529 355.443L265.459 354.373L264.656 352.434L264.79 351.231L268.135 352.033L270.744 351.699L275.36 348.557L276.364 348.089L277.033 347.153L281.783 344.613L282.385 344.68L282.853 345.816L283.188 349.56L284.793 350.964L292.487 352.702H295.096L306.87 349.292H306.937Z" fill="#F6F7F9" stroke="#C4CEDC" stroke-width="2" stroke-linecap="round" stroke-linejoin="round"/>
<path d="M420.935 75.808L421.202 78.8831L420.935 80.1532L421.069 81.7576L421.47 83.5626L421.403 84.6322L420.734 87.4399L420.801 89.4454L422.005 90.8493L423.611 91.6515L425.016 92.7211L425.685 95.3951L423.744 98.0691L419.731 99.473L418.794 99.6067L417.724 100.075L416.653 101.011L414.178 102.08L411.636 106.559L410.565 107.562L409.16 108.765L402.738 118.726L399.861 125.077L399.192 129.823L398.055 132.764L396.249 133.633L383.939 131.895L380.995 132.23L374.908 135.706L369.087 140.318L366.946 142.658L362.063 144.998L359.654 145.533L356.911 145.065L350.155 145.199L348.75 143.059L345.07 139.249L337.443 134.636L336.239 132.564L335.838 131.494V130.893L341.056 131.361L341.591 131.695L342.193 131.895L346.475 130.692L346.943 130.358L347.144 129.622V125.143L347.01 124.408L346.475 124.141L345.806 123.873L345.94 123.205L346.676 121.734L345.873 120.464L345.338 118.86L344.535 115.25L343.531 112.375L343.331 111.773L342.996 108.097L352.429 108.899H353.165L353.767 108.631L354.436 107.963L355.038 107.562L355.774 107.495L356.577 107.629H357.38L358.584 107.228L364.471 103.818L365.207 103.685L367.348 104.152H368.084L368.619 103.885L369.489 103.016L370.158 102.682L370.559 102.281L372.232 101.211L373.101 100.476L373.302 100.141L373.369 99.473L373.837 98.4033L373.971 97.8017V96.7321L373.77 96.1304L373.369 95.7962L373.302 95.5288L373.235 94.5929L373.837 93.2559L373.971 92.3868L374.172 91.7183L374.573 90.983L375.643 89.8465L380.862 86.2366L382.467 84.4317L382.735 83.9637L382.869 83.362L383.337 83.1615L384.207 82.9609L384.407 82.6267L384.809 81.8245L385.076 81.4902L385.745 81.2228L387.752 80.8886L388.221 80.688L388.488 80.0195L389.291 79.5516L390.83 79.0168H391.231L391.967 78.4151L392.636 78.014L395.245 76.0754L396.048 75.6743L398.256 75.6074L405.079 74.1367H406.15L408.291 74.6715L409.629 75.4069L410.164 75.6074H411.903L412.505 75.808L413.442 76.2759L413.91 76.4765H414.445L419.396 75.6074L420.801 75.7411L420.935 75.808Z" fill="#F6F7F9" stroke="#C4CEDC" stroke-width="2" stroke-linecap="round" stroke-linejoin="round"/>
<path d="M335.838 130.892V131.494L336.239 132.564L337.444 134.636L345.07 139.249L348.75 143.059L350.155 145.198L346.676 146.268L343.799 147.939L341.19 150.546L339.986 152.953L339.183 155.493L338.648 158.97L337.31 160.574L333.764 163.716L332.961 164.919L332.56 165.989L331.69 167.125L330.218 168.462L327.743 169.799L325.134 170.602L323.395 170.869L322.257 170.267L320.451 170.869L318.243 172.139L316.638 172.607L313.159 172.941L312.624 173.209L309.546 171.069L308.008 170.668L306.87 171.337L305.064 171.604L302.455 171.069L298.508 168.93L295.363 168.329L292.888 167.326L290.614 166.992L287.469 169.532L282.987 174.947L280.579 175.95L277.836 175.749L276.163 175.147L275.093 174.546L273.889 173.075L271.882 169.331L268.336 165.521L263.653 163.649L258.368 163.181L254.621 160.975L252.347 158.368L246.66 157.098L245.255 156.496L243.917 155.226L243.315 154.357L241.108 153.488L235.354 152.351V151.482L234.953 150.279L229.333 146.001L227.393 144.998L218.228 137.176L219.967 136.04L222.108 132.229L222.844 128.686L224.249 127.283L226.055 126.347L227.259 124.675L227.594 123.405L229.266 124.542L229.935 124.742L230.47 124.943L231.474 126.079L232.009 126.48L237.428 129.489L242.446 133.032L245.322 134.302L254.956 136.241L261.111 138.045L267.533 139.182L273.688 140.987L280.11 140.118L285.797 138.045L291.751 136.575L297.906 135.371L303.793 134.168L309.68 132.43L315.433 130.625L326.873 128.085L328.479 127.817L342.06 127.015L344.535 126.414L346.207 125.01L346.141 126.681L344.2 127.349L341.725 127.617L340.186 128.152L339.718 128.352L339.25 128.285L338.313 128.018L337.778 128.085L336.841 128.419L336.306 128.553L334.232 128.285H332.493L332.761 128.753L333.229 128.954L334.366 128.887L333.43 129.154L334.232 130.291L335.637 130.892H335.838Z" fill="#F6F7F9" stroke="#C4CEDC" stroke-width="2" stroke-linecap="round" stroke-linejoin="round"/>
<path d="M438.396 138.38L439.065 138.179L440.202 138.246L441.607 139.115L442.41 142.458L441.54 146.469L440.135 149.143L439.6 153.822L440.269 161.911L441.339 167.059L442.343 169.465L450.505 176.15L452.779 178.758L452.244 181.766L446.223 192.128L444.751 195.537L443.748 196.339L436.389 199.08L432.508 201.42L428.026 205.564L422.473 212.45L410.03 233.374L406.217 235.38L397.386 235.179L394.175 235.781L393.573 236.048V236.115L393.238 235.714L392.435 234.979L390.495 234.377L307.941 236.85L306.134 236.583L291.416 231.703L289.075 231.302L279.642 231.903L276.23 231.369L269.54 227.759L270.677 226.087L272.216 222.478L273.153 218.801L273.22 215.391L272.751 213.72L272.885 211.915L273.955 208.506L275.762 205.765L276.163 203.158L274.624 200.35L270.677 195.136L270.41 193.331L270.677 191.392L271.279 188.852L271.748 184.908L272.35 184.306L273.019 184.64L273.42 185.041L274.156 185.309L276.23 185.376L278.103 187.047L284.459 190.924L286.934 191.793L289.61 191.86L297.37 194.133L300.18 194.267L304.127 192.93L307.539 191.125L313.025 186.111L314.162 182.234L313.694 177.955L312.624 173.209L313.159 172.942L316.638 172.607L318.243 172.139L320.451 170.869L322.257 170.268L323.395 170.869L325.134 170.602L327.743 169.8L330.218 168.463L331.69 167.126L332.56 165.989L332.961 164.92L333.764 163.716L337.31 160.574L338.648 158.97L339.183 155.494L339.986 152.953L341.19 150.547L343.799 147.94L346.676 146.268L350.155 145.199L356.911 145.065L359.654 145.533L362.063 144.998L366.946 142.658L369.087 140.319L374.908 135.706L380.995 132.23L383.939 131.896L396.249 133.634L398.055 132.765L399.192 129.823L399.861 125.077L402.738 118.726L409.16 108.765L410.565 107.562L415.85 114.581L418.259 116.319L419.664 116.052L421.336 116.787L420.935 117.79L418.928 118.392L418.058 119.06L417.857 119.729L418.259 120.531L418.459 121.667L418.259 124.609L417.657 127.216L417.523 128.085L418.125 129.422L422.273 134.035L426.153 137.444L428.093 138.046L431.438 138.647L433.111 139.316L438.396 138.38Z" fill="#F6F7F9" stroke="#C4CEDC" stroke-width="2" stroke-linecap="round" stroke-linejoin="round"/>
<path d="M312.624 173.209L313.694 177.956L314.162 182.234L313.025 186.111L307.539 191.125L304.127 192.93L300.18 194.267L297.371 194.133L289.61 191.86L286.934 191.794L284.459 190.924L278.103 187.047L276.23 185.376L274.156 185.309L273.42 185.042L273.019 184.641L272.35 184.306L271.748 184.908L271.28 188.852L270.677 191.392L270.41 193.331L270.677 195.136L274.625 200.35L276.163 203.158L275.762 205.765L273.956 208.506L272.885 211.915L272.751 213.72L253.083 201.955L244.72 199.414L234.819 199.348V199.214L237.83 189.521L237.763 186.579L236.893 184.841L235.287 182.836L236.224 180.696L238.432 179.359L240.238 177.086L241.241 174.546L244.319 174.346L244.72 172.273L244.854 169.532L246.928 167.126L249.738 166.123L252.548 166.457L254.488 165.254V162.847L254.621 160.976L258.368 163.182L263.653 163.65L268.336 165.521L271.882 169.332L273.889 173.075L275.093 174.546L276.163 175.148L277.836 175.749L280.579 175.95L282.987 174.947L287.469 169.532L290.614 166.992L292.888 167.326L295.364 168.329L298.508 168.931L302.455 171.07L305.064 171.605L306.87 171.337L308.008 170.669L309.546 171.07L312.624 173.209Z" fill="#F6F7F9" stroke="#C4CEDC" stroke-width="2" stroke-linecap="round" stroke-linejoin="round"/>
<path d="M489.44 302.23L489.641 305.372L489.373 306.642L488.437 308.18L487.835 309.65L488.102 310.586L488.571 311.522L489.641 312.659V313.929L490.711 316.202L492.116 318.475L492.049 320.748L491.247 323.02L490.912 325.026L490.377 326.898L485.761 333.115L484.49 336.658L480.944 342.206L479.138 346.819L478.603 347.621L441.54 331.644L437.125 330.909L436.389 332.045L434.783 333.717L427.558 337.794L425.149 340.402L406.752 350.095L405.213 353.437L404.812 366.139L404.277 368.947L398.389 371.554L391.9 372.423L389.023 371.888L384.608 371.687L365.207 375.164L362.13 378.573L360.524 381.581L359.788 384.523L359.855 386.528L361.795 390.205L363.869 395.553L364.672 399.564L365.809 400.901L366.88 401.703L366.478 414.672L366.813 416.945L367.281 418.483L367.348 419.619L366.277 420.421L362.732 420.822L362.397 421.157L360.859 421.825L353.834 418.282L348.482 414.204L347.479 411.798L346.274 403.04L344.736 400.366L339.25 393.614L333.496 383.319L325.402 362.863L320.986 357.448L315.768 352.635L306.937 349.293L305.465 343.276L305.332 340.468L305.733 339.466L306.402 334.519L307.807 328.77L308.141 326.162L307.138 313.595L307.405 312.258L308.81 311.322L311.286 310.586L313.493 309.316L315.032 308.046L317.106 306.709L320.451 305.372L322.993 305.305L333.898 307.845L370.559 295.211L374.172 293.072L376.112 290.732L377.45 288.258L378.52 285.183L380.126 278.231L381.999 275.958L385.411 274.086L388.087 273.819L390.094 272.415L393.037 267.267L393.974 264.326L393.573 236.115V236.048L394.175 235.781L397.386 235.179L406.217 235.38L410.03 233.374L422.473 212.45L436.589 208.707L450.371 202.222L459.068 199.949L462.881 200.952L472.983 208.707L474.187 211.381L473.719 214.055L470.374 217.33L456.659 227.09L454.318 231.302L449.902 244.471L449.635 251.491L451.776 263.524L453.448 266.064L460.272 266.933L469.103 264.861L470.641 266.733L471.979 269.407L474.589 286.855L476.796 292.002L479.74 293.673L480.61 294.342L482.817 295.344L485.761 297.216L488.571 301.562L489.44 302.23Z" fill="#F6F7F9" stroke="#C4CEDC" stroke-width="2" stroke-linecap="round" stroke-linejoin="round"/>
<path d="M253.016 366.807L251.811 366.74L249.604 367.141L247.864 368.679L245.991 369.681L242.044 369.147H240.84L227.995 357.715L226.925 357.582L225.118 357.648L219.03 355.242L216.555 353.704L217.826 351.298L219.699 348.958L219.766 347.086L218.763 344.813L215.819 341.671L215.15 340.468L213.478 338.93L212.407 337.192L211.337 334.786L210.4 331.376L209.932 330.307L209.397 329.705L207.724 329.17L207.256 328.635L206.386 327.967L205.517 326.897L204.446 324.156L199.228 315.867L198.693 313.394L198.559 312.19L205.383 308.514L207.724 308.781L208.929 308.58L210.066 308.046L211.605 307.711L213.678 308.915L215.819 310.653L218.027 310.92L219.766 310.519L220.837 310.92L222.375 310.586L226.256 308.046L227.594 307.778L232.143 307.645L233.548 307.177L234.351 306.307L235.822 306.107L237.16 307.243L237.495 309.115L237.896 310.118L238.766 310.385L239.301 310.92L239.569 312.123L240.372 313.327L240.171 316.335L240.505 319.544L244.921 322.953L246.727 324.758L250.741 327.833L252.547 331.109L253.149 335.32L252.079 337.527L250.674 338.462L250.54 339.733L251.209 340.936L252.28 342.273L252.347 343.543L250.875 344.145L249.738 345.014L249.537 347.22L250.273 351.832L253.417 362.261L253.35 365.403L253.016 366.807Z" fill="#F6F7F9" stroke="#C4CEDC" stroke-width="2" stroke-linecap="round" stroke-linejoin="round"/>
<path d="M188.725 299.756L190.398 303.901L192.271 304.904L195.281 304.703L198.76 306.04L200.232 307.979L199.496 309.115L198.559 312.19L198.693 313.394L199.228 315.867L204.447 324.157L205.517 326.897L206.387 327.967L207.256 328.636L207.725 329.17L209.397 329.705L209.932 330.307L210.401 331.376L211.337 334.786L212.408 337.192L213.478 338.931L215.151 340.468L215.82 341.671L218.763 344.813L219.767 347.086L219.7 348.958L217.827 351.298L216.555 353.704L214.281 356.78L210.133 360.523L207.457 361.66L206.253 362.529L205.383 363.732L204.848 365.002V367.409L206.454 373.091L206.52 374.695L206.387 375.297L206.186 376.5L205.851 377.837L206.119 378.84L212.006 378.038L213.411 379.843L216.087 382.517L219.365 384.322L221.372 385.726L221.974 387.798L219.967 392.544L220.168 394.617L221.305 395.887L221.907 398.561L222.51 404.845L217.224 404.577L215.217 403.575L211.672 404.176L209.397 405.313L208.527 404.912L207.256 404.778L205.985 404.979L204.714 405.446L193.876 412.399L192.605 412.934L191.468 412.666L190.531 411.262L190.464 410.594L190.398 408.789L190.13 408.12L189.662 407.318L189.327 407.118L188.658 406.917L187.922 406.85L186.785 407.051L186.384 407.118L185.982 407.051L185.447 406.65L185.179 406.583L184.443 406.717L183.172 407.251L182.436 407.385L181.567 407.318L181.232 406.984L181.299 405.313L180.697 404.845L180.563 404.644V403.842L180.764 403.24V402.973L180.296 402.706L180.095 403.374L179.76 404.043L179.225 404.577L178.69 404.644L178.021 404.243L177.753 403.708L177.352 403.307L176.75 403.24L175.947 402.973L173.673 401.636L173.204 401.235L173.004 399.898L172.401 399.096L171.465 398.628L170.328 398.36L170.729 397.692L171.331 397.558L172.736 397.759H173.472L174.609 397.358L175.211 397.224L175.947 397.424L177.352 398.16L177.82 398.36L178.623 398.427L179.158 398.695L179.627 399.096L180.095 399.697L180.296 399.163L180.965 398.026L181.968 396.689L182.169 396.288L182.236 395.553L181.5 395.753L180.965 395.419L180.63 394.75L180.363 393.28L179.961 393.48L179.426 394.082L178.891 394.483L178.958 393.948L179.158 393.681L178.824 393.213L178.556 393.28L178.222 393.547L177.687 393.681L177.486 393.547L177.151 392.945L176.884 392.812L176.148 393.146L175.479 393.012L174.877 392.812H174.275L173.673 393.146L172.468 392.945L171.465 393.547L171.197 394.349L172.134 394.817L173.204 395.018L174.074 395.553L174.342 396.288L173.673 396.956H173.07L171.197 396.689L170.796 396.823L168.923 398.628L168.521 399.229L168.321 399.764L168.722 400.098L168.254 400.901L168.454 401.77L169.056 402.438L169.792 402.973L170.328 403.575L170.662 404.31L170.863 405.179L171.063 406.984L170.997 407.452L170.662 408.321L170.595 408.789V409.19L170.796 409.925V410.393L170.595 411.196L170.127 411.864L169.525 412.399L168.789 412.599L166.447 412.332L165.845 412.599L165.176 412.265L162.768 412.332L161.296 411.463L160.761 411.396L160.627 412.065L160.828 412.533L161.296 413.268L161.363 413.87L161.296 414.204L161.028 414.605L160.426 415.073L159.624 415.273L156.613 415.006L155.543 414.739L155.007 414.404L154.539 414.003L154.138 413.535L153.87 412.733L153.803 412.198L153.134 410.26L152.867 409.792L152.198 408.99L151.729 408.054L151.662 407.786L151.729 407.318L152.331 406.717L152.599 406.382L152.666 405.914L152.599 405.513L152.198 404.778L150.86 403.508L149.789 402.238L149.053 401.101L148.719 400.767L148.317 400.633H147.916L146.645 400.834L145.775 400.767L145.441 400.633L145.106 400.299L144.972 399.965L144.705 398.16L144.37 397.291L143.969 396.489L143.367 395.887L142.631 395.553L138.951 395.018L138.885 393.815L139.018 374.428L138.951 373.893L138.55 373.693H127.177L127.378 356.98L132.663 342.607L132.864 341.671L132.797 340.802L132.328 340.067L130.923 339.064L130.388 338.396L130.054 337.393L129.853 337.059L129.652 336.791L128.983 336.39L128.783 336.056L127.512 333.85L127.378 333.115L127.043 332.379L125.839 331.778L125.304 331.176L124.501 329.371L123.966 328.636L124.902 328.301L128.515 325.895L129.786 323.889L129.318 321.282V319.21L131.793 315.733L135.004 308.313L136.878 305.505L141.627 293.071L143.501 291.667L151.997 291.066L154.472 290.33L158.152 290.063L161.697 291.133L163.504 292.871L165.645 293.472L173.271 294.275L181.366 299.823L186.25 300.291L188.725 299.756Z" fill="#F6F7F9" stroke="#C4CEDC" stroke-width="2" stroke-linecap="round" stroke-linejoin="round"/>
<path d="M127.913 235.781L128.783 236.182L130.254 237.118L130.99 238.187L145.842 247.947L153.536 248.883L154.807 249.351L155.81 249.084L157.616 247.212L158.553 247.011L160.359 247.078L162.634 246.811L172.067 250.889L171.532 251.758L171.264 253.095L171.732 254.231L171.866 255.167L170.461 258.376L170.194 259.312L169.993 260.315L170.461 261.184L172.201 262.186L174.475 263.055L178.355 263.39L179.359 263.724L182.102 261.986L182.771 261.317L183.908 257.641L185.447 256.772L187.387 256.103L189.126 255.167L191 255.769L192.538 257.574L193.475 259.178L193.542 260.315L192.94 261.518L192.605 262.721L192.94 263.724L194.077 264.66L196.619 265.997L197.823 267.267L198.894 268.069L199.697 267.534L199.964 266.465L200.633 265.128L201.837 264.259L202.573 264.727L203.175 265.729L204.246 266.598L204.982 267.334V268.537L205.182 269.74L207.39 270.944L207.725 271.278L206.922 272.949L206.788 275.155L206.855 276.96L203.376 283.98L203.175 284.982L203.108 285.718L202.306 286.252L197.154 287.656L195.147 289.996L194.545 294.943L192.94 296.079L190.197 297.015L189.394 297.55L188.926 298.352L188.725 299.355V299.756L186.25 300.291L181.366 299.823L173.271 294.274L165.644 293.472L163.504 292.871L161.697 291.133L158.152 290.063L154.472 290.33L151.997 291.066L143.501 291.667L141.627 293.071L136.877 305.505L135.004 308.313L134.603 307.912L133.867 306.909L128.314 295.144L124.233 289.796L123.096 288.525L122.628 288.258L121.959 288.057L121.49 287.589L120.821 286.252L120.019 285.317L119.617 285.116H119.082L118.681 284.982L118.48 284.447L118.079 283.98L113.864 281.907L112.392 281.506L111.522 280.971L110.853 280.303V279.768L110.251 279.501L108.579 278.164L108.177 277.829H107.709L107.508 278.03L107.107 277.963L106.839 277.495L105.568 277.094L104.899 276.76L104.498 276.359L104.03 275.824L103.896 275.49L104.297 274.754L104.364 274.353L104.23 273.952L103.896 273.818L102.023 272.682L101.287 272.414L100.35 271.278L99.2797 270.676L98.4769 269.272L97.9417 269.005V268.671L98.4769 267.066L98.5438 266.465L99.1459 266.197L99.748 266.131L100.484 264.192L102.625 262.186L114.734 258.777L115.469 257.774L117.343 256.504L118.212 255.635L118.681 254.699L118.814 253.362L118.547 251.357L117.744 249.485L117.276 248.816L117.878 248.415L118.346 247.613L118.212 247.279V246.811L118.279 246.075L118.212 245.608L118.079 245.206L117.61 244.738L117.543 244.337L117.744 243.736L119.751 242.733L122.226 242.599L123.899 241.73L124.1 239.39L123.765 237.118L123.899 236.182L124.501 235.781L125.504 235.446L127.913 235.781Z" fill="#F6F7F9" stroke="#C4CEDC" stroke-width="2" stroke-linecap="round" stroke-linejoin="round"/>
<path d="M117.276 248.817L117.744 249.485L118.547 251.357L118.814 253.363L118.681 254.7L118.212 255.635L117.343 256.505L115.469 257.775L114.733 258.777L102.625 262.187L100.484 264.192L99.7479 266.131L99.1458 266.198L98.5437 266.465L98.4768 267.067L97.9416 268.671V269.005L98.4768 269.273L99.2796 270.677L100.35 271.278L101.287 272.415L102.022 272.682L103.896 273.819L104.23 273.952L104.364 274.354L104.297 274.755L103.896 275.49L104.029 275.824L104.498 276.359L104.899 276.76L105.568 277.094L106.839 277.495L107.107 277.963L107.508 278.03L107.709 277.83H108.177L108.579 278.164L110.251 279.501L110.853 279.768V280.303L111.522 280.972L112.392 281.506L113.864 281.908L118.078 283.98L118.48 284.448L118.681 284.983L119.082 285.116H119.617L120.019 285.317L120.821 286.253L121.49 287.59L121.959 288.058L122.628 288.258L123.096 288.526L124.233 289.796L128.314 295.144L133.867 306.91L134.603 307.912L135.004 308.313L131.793 315.734L129.318 319.21V321.282L129.786 323.89L128.515 325.895L124.902 328.302L123.966 328.636L123.899 328.569L123.23 328.302L122.695 328.235L122.159 327.433L121.691 327.165L121.156 327.031L120.888 326.831L120.955 325.962L121.089 325.494L121.49 324.759V324.157L121.357 323.622L120.688 323.087L120.487 322.619L119.952 322.218L119.015 320.881L118.012 319.879L117.61 319.143L118.078 318.007L118.346 317.539V317.004L118.145 316.737L117.209 316.001L116.607 315.266L116.205 314.664L115.804 314.129L115.068 313.728L113.061 313.06H112.593L110.987 313.929L110.385 314.129L109.181 314.263L108.11 314.063L107.04 313.461L105.903 312.659L95.5332 303.567L94.0614 301.963L91.7868 300.559L90.2481 299.289L86.9031 297.35L85.8996 296.347L82.4877 294.676L78.8082 293.54L74.7273 294.007L72.6534 293.74L71.9175 292.136L72.3858 291.601L72.921 291.133L73.4562 290.598L73.6569 289.93L73.5231 289.328L72.9879 288.927L72.3189 288.593L70.8471 288.459L70.3119 288.058L70.3788 287.523L71.0478 287.122L71.8506 287.055L72.3858 287.122L72.9879 286.988L73.7238 286.453L74.6604 285.517L75.1287 284.916L75.3294 284.381V284.047L74.928 283.779L74.7942 283.378V283.044L74.9949 282.242V281.841L74.7273 281.172L74.1921 280.637L73.1217 279.768L71.7168 277.83L70.5795 276.693L70.3788 276.092V275.423L70.245 274.554L69.9774 273.752L69.576 273.083L68.4387 271.613L67.9035 271.345L67.5021 271.479L66.9 272.081L65.8296 272.214L64.8261 271.947L64.224 271.479L64.7592 270.744L66.4317 269.741L66.8331 269.072L66.5655 268.203L65.8296 267.668L65.2275 267.067L65.3613 265.797L64.6254 265.997H62.9529L62.3508 266.265L61.3473 267.201L60.7452 267.602L60.1431 267.735L59.9424 267.468V265.997L59.8086 265.663L60.6114 265.061L61.3473 259.045L62.6184 254.833L63.0198 252.159L62.5515 250.622L63.1536 249.819L65.2275 249.886L70.5795 249.218L75.7308 251.357L78.5406 251.558L81.3504 252.226L83.625 253.63L86.1672 255.836L94.8642 258.644L98.9451 258.978L104.832 257.44L110.251 257.708L110.92 256.304L111.455 253.63L110.92 252.56L109.984 251.156V249.819L115.536 248.549L116.674 248.683L117.276 248.817Z" fill="#F6F7F9" stroke="#C4CEDC" stroke-width="2" stroke-linecap="round" stroke-linejoin="round"/>
<path d="M382.467 575.514L382.2 575.714L381.731 575.848L381.263 575.447L380.995 574.845L381.531 574.578L382.133 574.377L382.266 574.711L382.467 575.514ZM365.14 574.11L364.806 574.377L364.337 574.31L363.802 574.043L363.668 573.575L364.07 573.374L364.939 573.107L365.073 573.441L365.14 574.11ZM364.203 560.606H364.003L363.2 560.272L362.999 560.071L362.865 558.801L362.999 558.333L363.267 558.066L363.534 557.932L363.869 557.999L364.203 558.333L364.471 558.467L364.806 558.801L364.939 559.068L364.203 560.606ZM347.679 551.247L347.278 551.447L344.468 551.314L343.331 550.779L342.662 549.576L342.996 549.041L343.531 548.707L344.133 548.506H344.802L345.405 548.707L346.676 548.84L347.144 549.041L347.278 549.308V549.977L347.746 550.311L347.813 550.779L347.679 551.247ZM411.368 546.233L410.632 546.634L410.097 546.3L410.164 545.431L410.632 544.562L411.167 544.161L411.502 544.094L411.769 544.495L411.836 545.364L411.368 546.233ZM334.232 544.495L333.764 544.963L333.162 544.829L332.56 544.562L332.225 544.094L332.493 543.626H333.162L333.965 543.893L334.232 544.495ZM324.666 539.281L324.13 539.414L322.792 539.281L322.391 539.414L321.789 539.749H321.12L319.113 539.414L318.511 539.147L317.976 538.813L316.905 537.877L316.571 537.543L316.704 537.409L317.574 537.208L320.518 538.077L323.06 538.278L323.93 538.612L324.666 539.281ZM428.294 537.877L426.956 538.345L426.354 538.077L426.487 537.008L426.956 536.339L427.825 535.938L429.163 535.805L429.364 537.008L428.294 537.877ZM421.135 535.27L420.333 537.008L419.931 537.676L418.526 539.147L418.259 539.682L417.991 539.949L416.653 540.618L416.385 541.019L416.051 541.153L414.378 542.824L413.375 543.425L412.572 543.091L411.769 542.289L410.9 541.62L408.625 542.824L407.956 543.359L407.287 543.693H406.551L405.012 543.492L404.277 543.626L403.541 543.96L401.734 545.297L399.794 546.166L398.59 547.035L397.988 547.37L395.847 547.57L394.308 547.971L393.706 548.439L393.372 548.506L392.703 548.372H392.368L392.034 548.907L391.632 549.175L390.897 549.308L390.629 549.108L390.495 548.707L390.294 547.704L390.562 547.035L390.629 546.634L390.428 546.434L390.094 545.23L390.428 544.829L392.101 545.364L392.435 545.23L392.77 545.297L394.576 544.295L399.192 542.757L399.861 542.69L400.463 542.49L402.069 541.487L402.738 540.952L405.012 540.016L406.083 540.083L406.685 539.949L407.019 539.615L407.354 539.548L407.086 539.013L407.622 538.412L407.755 537.676L407.622 535.938L407.354 535.27L406.752 534.668L406.15 534.267L405.949 533.933L406.819 533.398L411.636 535.27L412.974 534.935L416.586 532.596L421.135 531.526H422.54L423.209 531.727L424.079 532.061L424.815 532.663L425.149 533.398L424.012 534L421.871 534.601L421.135 535.27ZM431.839 529.855L431.304 529.922L430.234 529.521L430.301 528.518L430.903 527.649L431.505 527.515L432.308 527.916L432.642 528.184L432.776 528.785L432.642 529.253L432.308 529.587L431.839 529.855ZM514.193 569.898L513.792 570.099L513.19 571.101L512.989 572.305L513.123 572.973L513.591 573.174L514.862 573.976L521.418 579.792L522.489 581.597L522.69 583.001L523.425 583.803L524.496 584.204L525.031 584.873L525.299 585.675L525.767 586.276L526.369 586.878L527.573 588.95L527.841 589.285L528.51 589.619L528.376 590.822L527.439 591.223L527.64 592.159L525.7 592.427L523.693 593.363L522.957 593.563L522.69 593.496L522.221 593.095L521.218 593.363L520.482 593.296L519.746 593.162L519.211 592.961L518.742 592.56L517.137 590.02L516.267 588.95L514.929 588.349H513.725L513.39 588.215L512.922 587.145L512.521 587.012H509.51L503.222 585.875L501.081 586.21L499.208 586.143L498.606 585.808L498.806 585.207L497.803 585.274L496.732 585.474L496.264 585.742L495.461 586.41L494.926 586.544L494.391 586.276L493.722 586.878L493.387 586.945L492.718 586.744L491.514 587.613L490.243 587.814L489.106 587.547L488.035 587.212L486.898 587.012L485.961 586.611L485.159 585.608L484.155 583.402L483.085 582.065L481.747 581.731L480.342 582.132L478.937 582.867L477.733 583.803L476.997 584.271H476.462L476.595 582.6L476.863 581.797L476.796 581.53L476.462 580.661L475.926 580.193L475.191 579.992L474.321 579.926L473.518 580.059L471.645 580.46L471.177 580.394L470.508 580.059L470.039 579.926L469.705 579.992L468.634 580.193L467.765 580.126L465.423 579.391L465.691 579.19L461.075 578.856L460.539 578.589L460.272 577.987L460.071 576.115L459.268 574.177L458.8 572.572L458.532 571.837L457.395 570.5H456.659L456.459 569.831L455.99 568.494L455.856 567.826L455.522 567.09L455.455 566.622L455.656 565.82L456.726 564.684L457.128 563.882L456.659 562.678L454.385 560.138L454.585 559.068L454.318 558.868L454.117 557.13L453.849 556.261L453.448 555.525L452.779 554.924L452.511 554.255L452.378 553.052L452.98 548.239L452.846 546.434L450.638 537.409L450.17 536.74L448.966 535.738L448.564 535.069L448.631 534.468L447.561 533.732L447.159 533.398H447.695L448.832 532.863L448.564 532.596L448.497 532.195L448.832 531.526L447.762 531.994L447.427 532.061L447.093 531.994L446.758 531.593L446.424 531.392L446.022 530.991L445.286 531.326L445.086 531.192L445.019 530.456L444.617 530.59L444.35 530.39V530.055L444.885 529.788L445.487 529.119L445.755 528.919V528.585L444.751 528.451L443.948 527.916L443.346 527.114L443.145 526.245L442.744 526.646L442.276 526.78H441.339L440.871 526.646L440.269 525.844L439.934 525.71L436.389 525.643L435.586 525.376L435.318 525.71L434.515 525.242L433.445 525.042L431.304 524.908L430.301 524.707L428.494 523.972L427.357 523.838L425.283 523.905L424.146 524.239L423.343 524.774L422.607 525.108L420.399 525.242L419.463 525.376L419.195 525.576L418.593 526.178L418.392 526.78L417.991 526.98L417.054 527.649L414.713 529.053L413.91 529.788V529.922L413.107 530.59L412.706 530.724L411.167 530.924L409.762 531.259L409.361 531.326L408.224 531.259L407.822 531.326L407.287 531.727L407.019 531.794H405.681L404.611 531.526H404.277L403.608 531.794L402.47 532.93L401.667 533.465L399.794 535.537L400.263 535.337L400.731 535.002L400.865 535.938L400.664 537.142L400.263 538.211L399.794 539.013L398.657 540.016L397.319 540.685L395.914 540.952L394.308 540.885L391.566 539.882L389.96 539.682L388.622 540.283L388.221 541.019L388.02 541.754L387.685 542.222L386.883 542.423L386.214 542.556L384.675 542.957L384.14 543.225L381.932 545.23L381.531 545.498L378.186 548.172L374.439 550.378L373.703 551.046L373.369 551.18L372.9 551.113L372.365 550.712L371.964 550.645L368.953 550.913L367.482 550.712L366.879 549.843L366.411 548.707L365.408 547.704L363.869 547.436L360.725 547.57L359.454 546.969L358.851 545.966L358.316 544.696L357.714 543.559L356.644 542.69L355.908 542.556L355.239 542.69L354.57 542.824L351.961 543.024L351.225 542.957L348.816 542.289L347.88 542.022L347.211 541.487L346.943 541.353H346.542L345.873 541.487L343.598 542.556L341.993 542.824L340.588 543.225H339.785L338.246 542.69L337.443 542.623L336.641 543.091L336.172 542.957L334.366 541.353L331.757 539.816L328.412 537.275L327.944 536.674L327.743 535.938L327.676 534.066L327.342 533.331L326.806 532.596L325.669 531.927L313.895 527.916L313.159 527.849L312.423 527.582L311.955 527.114L311.553 526.445L311.152 525.911L309.078 525.443L308.743 525.042L308.476 524.173L307.74 523.771L306.201 523.304L303.391 520.763L302.187 519.961L300.314 519.092L300.849 518.022L301.251 517.822L301.92 517.488L302.321 517.554L304.529 517.287L305.131 517.354L306.87 517.755L308.476 517.822L308.944 517.688L310.416 516.819L311.352 518.624L313.895 521.031L321.588 521.699L322.859 522.234L325.803 524.641L326.405 524.908L327.007 524.975L329.482 524.373H330.419L340.989 526.245L344.602 524.306L345.538 522.769L345.137 521.632V521.231L345.873 519.092L346.408 516.017L347.88 514.145L351.492 512.875L360.725 512.073L362.799 512.34L364.471 512.875L366.144 512.14L369.355 511.404L378.52 512.741L382.869 511.404L384.876 509.532L386.013 506.056L387.351 503.917L392.034 501.377L395.245 500.508L397.252 500.641L398.256 500.173L399.058 499.639L399.66 498.636L399.861 496.43L398.189 493.756L395.312 491.349L395.111 490.079L395.312 488.475L397.051 482.057L397.453 477.645L396.516 475.171L386.147 465.077L385.946 463.205L387.083 462.403V461.267L385.076 455.25L388.02 455.451L394.242 457.256L397.386 459.662L398.858 461.668L400.396 462.737L401.935 463.473L403.674 463.005L410.632 457.79L414.713 455.852L415.716 455.718L416.72 457.189L417.389 472.163L416.519 475.105L417.255 478.982L420.333 482.926L423.276 485.667L426.822 487.806L430.97 488.475L433.177 488.073L437.258 486.068L441.005 482.458L442.075 481.188L443.614 479.918L445.487 479.985L449.1 481.79L449.367 482.391L449.1 486.402L450.371 492.486L450.839 493.355L451.508 493.956L452.578 494.09L454.385 495.026L455.79 496.831L456.592 498.368L458.131 500.106L459.737 502.513L459.937 504.452L459.001 505.254L458.399 506.457L459.201 507.594L460.071 508.062L461.008 510L462.078 513.075L463.149 527.582L463.884 529.855L474.588 535.537L476.93 537.275L477.933 537.609L479.606 536.072L480.409 534.869L481.814 533.933L484.088 534L486.497 535.403L489.039 537.609L491.113 539.949L492.116 542.088L491.782 542.824L489.641 541.487H488.905L488.838 542.222L489.708 544.762V545.698L489.507 546.367L488.905 547.169L488.437 548.306L487.634 555.86L487.835 556.996V558.133L487.433 560.272L486.697 561.141L486.764 561.876L491.38 561.609L494.19 562.077L496.063 561.943L497.268 561.341L498.472 561.609L499.81 562.21L501.951 562.545L502.62 563.013L502.553 563.414L502.218 564.082L502.285 564.884L502.686 565.687L502.753 566.89L503.355 567.959L504.76 568.294L506.5 568.361L507.972 568.16L508.975 567.09L509.979 566.823L511.317 567.358H512.32L512.788 567.759L514.193 569.898Z" fill="#F6F7F9" stroke="#C4CEDC" stroke-width="2" stroke-linecap="round" stroke-linejoin="round"/>
<path d="M159.69 61.9701L159.891 62.438L161.028 63.3739L161.697 64.3098L161.898 65.1789L162.768 65.5131L164.039 65.7805L164.574 66.3822L164.306 67.1844L156.479 76.4766L155.743 78.1478L155.476 80.4876L154.338 82.2257L154.271 84.6323L157.483 93.4565L163.169 102.481L165.109 104.487L167.317 106.225L168.454 107.696L168.521 108.899L168.32 110.838L168.655 113.11L168.989 114.18L166.715 112.91L165.444 113.311L164.106 114.247L162.835 114.046L161.898 113.512L161.229 113.779L160.761 114.514V115.25L160.292 116.052L159.289 116.252L156.68 113.512L155.275 112.977L154.271 113.244L153.268 112.843H153L152.465 111.907L151.997 111.64H150.793L150.257 111.84L149.99 112.241H149.722L149.99 111.372L148.384 110.035L147.648 109.3L145.574 107.896L144.638 105.757L144.37 102.615L143.434 101.813L140.891 100.476L140.156 100.342L139.955 100.476L136.543 98.3366L135.539 93.5902L135.807 89.5792L136.61 87.9748L136.944 86.7046L136.61 85.9693L134.268 83.8301L131.525 80.0865L129.786 75.7412L129.585 72.265L128.582 68.9893L126.173 67.786L118.346 68.9225L117.343 68.7888L116.874 68.3877L115.804 67.3181L113.596 67.6523L111.924 68.254L111.522 66.917L111.656 64.6441L112.392 63.0397L113.262 61.9032L114.332 59.8308L117.142 57.8253L118.547 56.2209L120.955 55.5524L123.431 55.9535L125.103 54.8171L124.434 52.611L122.628 51.6083L122.561 50.3381L123.899 48.6669L124.233 45.6586L122.226 40.6448L122.159 37.3023L121.624 36.567L122.093 31.4864L120.688 30.9516L118.48 32.9571L116.138 34.3609L114.734 34.2272L112.124 36.0322L108.177 42.9177L108.646 43.6531L109.181 43.8536L108.713 44.3885L106.572 46.0597L105.301 47.8647L103.829 49.0011L98.6776 47.5304L96.403 48.1989L93.9946 49.4691L91.6531 50.3381L89.8468 49.3354L88.9102 46.9288L89.4454 44.1879L90.8503 42.3161L91.7869 41.7813L92.1214 41.1128L93.3925 40.9791L95.2657 41.447L95.734 41.0459L95.9347 39.7758L96.0016 38.5056L96.0685 37.8371L96.8044 37.7703L98.3431 39.1073L99.8818 38.773L101.287 37.9708L103.427 37.7034L106.438 35.6311L107.174 34.6283L107.375 33.8261L107.508 32.9571L106.839 30.2831L106.371 29.3472L105.301 28.8123L104.832 28.2775L104.765 27.8096L104.632 27.7427L104.364 26.8737L104.632 26.74L105.167 25.9378L105.769 24.2665L106.973 22.261L107.107 21.7931L107.441 21.4588L109.114 20.3892L112.526 19.0522L113.998 18.25L115.135 17.0467L116.874 14.8407L118.012 13.9048L119.417 13.1025L121.825 12.3003L122.628 12.1666L123.096 11.8992L124.902 10.0274L129.719 7.28658L131.726 5.21422L132.395 4.74627L133.198 4.54572L135.807 4.61257L136.275 4.47887L136.61 4.14462L137.011 3.54297L137.48 3.67667L138.149 4.14462L140.289 6.15013L146.11 13.1025L148.451 15.3086L149.455 16.6456L150.191 18.25L148.986 18.718L147.113 19.9213L144.972 20.3224L143.835 20.9909L142.832 21.9268L142.163 23.1969L142.096 24.7345L142.564 25.9378L143.434 27.1411L145.374 29.0129L147.381 29.882L147.849 30.3499L148.919 32.6228L149.12 33.1576V33.7593L148.919 34.4278L148.652 34.9626L148.317 35.4974L146.912 36.3664L140.49 37.5029L140.423 37.7703L140.289 38.3719L138.483 39.5084L138.149 40.0432L138.282 41.8481L138.951 43.1183L141.226 44.9233L145.775 47.1962L146.177 47.5304L146.444 48.6L146.31 49.4022L146.377 50.2044L148.05 51.5414L148.585 52.3436L149.254 52.9453H150.324L152.064 52.1431H152.867L153.268 53.079L153.469 54.2823L153.937 54.8839L154.472 55.3519L155.074 56.2878L155.676 56.8894L156.145 57.6248L157.483 59.296L158.419 60.9005L159.49 61.9701H159.69Z" fill="#F6F7F9" stroke="#C4CEDC" stroke-width="2" stroke-linecap="round" stroke-linejoin="round"/>
<path d="M235.287 182.835L236.893 184.841L237.763 186.579L237.83 189.52L234.819 199.214L233.816 200.618L232.678 203.893L232.076 210.378L231.675 211.982L231.006 212.383L227.46 213.586L223.178 214.255L221.105 215.659L218.094 216.528L214.95 216.06L213.01 217.664L212.943 220.405L213.679 221.408L213.277 222.277L210.066 224.082L209.732 226.288L211.605 228.427L213.143 229.831L214.415 230.433L215.753 230.299L216.823 230.901L217.826 232.104L218.362 233.307L218.228 235.045L219.031 237.118L220.636 239.123L222.911 241.062L231.875 241.864L235.421 243.803L243.382 246.009L242.981 248.482L239.703 256.504L238.766 258.109H236.759L234.618 258.844L232.678 260.448L230.471 261.852L216.087 265.596L210.601 268.872L207.725 271.278L207.39 270.944L205.182 269.741L204.982 268.537V267.334L204.246 266.599L203.175 265.73L202.573 264.727L201.837 264.259L200.633 265.128L199.964 266.465L199.697 267.535L198.894 268.069L197.823 267.267L196.619 265.997L194.077 264.66L192.94 263.724L192.605 262.721L192.94 261.518L193.542 260.315L193.475 259.178L192.538 257.574L191 255.769L189.126 255.167L187.387 256.103L185.447 256.772L183.908 257.641L182.771 261.318L182.102 261.986L179.359 263.724L178.355 263.39L174.475 263.056L172.201 262.187L170.461 261.184L169.993 260.315L170.194 259.312L170.461 258.376L171.866 255.167L171.732 254.231L171.264 253.095L171.532 251.758L172.067 250.889L175.679 247.613L176.282 246.811L176.415 245.808L175.746 243.134L175.546 240.795L175.01 238.522L172.535 233.708L172.268 229.296L171.665 226.622L169.926 225.954L169.458 224.75L170.662 224.283L174.208 224.684L175.813 225.419L176.616 225.218L176.014 222.01L176.148 219.068L177.017 217.531L177.486 216.06L177.084 213.586L177.954 212.249L184.243 211.915L187.253 212.45L188.056 213.653L187.32 215.258L187.855 217.13L189.193 218.801L190.331 219.804L191.869 219.937L192.672 218.266L191.936 213.72L191.066 211.648L189.394 209.642L187.655 208.773L183.908 207.77L182.369 206.968L181.567 206.233L181.5 205.631L182.102 204.896L183.172 204.762L185.112 204.161L186.785 202.222L186.383 200.283L184.845 197.676L184.176 194.868L185.246 193.465L186.183 193.398L186.317 194.2L186.25 195.27L186.919 196.205L188.123 196.473L189.26 195.136L189.394 193.531L188.591 192.462L188.324 190.924V189.921L194.411 189.788L195.415 187.381L196.887 186.312L202.975 184.44L204.781 183.571L206.654 182.969L208.26 182.902L214.481 180.228L216.488 180.095L217.559 180.228L219.031 180.562L222.509 180.83L225.921 181.766L227.928 183.571L228.798 184.106L229.133 183.504V182.769L227.795 180.897L228.263 179.76H230.203L231.541 181.365V183.704L231.742 185.108L232.745 184.975L233.682 182.969L235.287 182.835Z" fill="#F6F7F9" stroke="#C4CEDC" stroke-width="2" stroke-linecap="round" stroke-linejoin="round"/>
<path d="M272.751 213.72L273.22 215.392L273.153 218.801L272.216 222.478L270.677 226.088L269.54 227.759L257.899 230.767L255.223 230.633L247.731 231.503L244.453 232.906L243.115 234.243L242.713 235.447L241.71 243.669L242.446 245.474L243.382 246.009L235.421 243.803L231.875 241.864L222.911 241.062L220.636 239.123L219.031 237.118L218.228 235.046L218.362 233.307L217.826 232.104L216.823 230.901L215.752 230.299L214.414 230.433L213.143 229.831L211.605 228.427L209.731 226.288L210.066 224.082L213.277 222.277L213.679 221.408L212.943 220.405L213.01 217.665L214.95 216.06L218.094 216.528L221.104 215.659L223.178 214.255L227.46 213.587L231.006 212.383L231.675 211.982L232.076 210.378L232.678 203.893L233.815 200.618L234.819 199.214V199.348L244.72 199.414L253.083 201.955L272.751 213.72Z" fill="#F6F7F9" stroke="#C4CEDC" stroke-width="2" stroke-linecap="round" stroke-linejoin="round"/>
<path d="M146.31 179.226L147.448 181.298L149.053 182.301L156.479 182.568L159.49 184.173L162.366 184.908L164.976 183.972L166.247 182.234V181.499L167.852 180.83L171.666 180.897L174.542 182.501L175.813 184.173L174.81 185.777L177.151 187.582L181.567 188.317L182.57 188.117L187.454 189.32L188.324 189.922V190.924L188.591 192.462L189.394 193.532L189.26 195.136L188.123 196.473L186.919 196.206L186.25 195.27L186.317 194.2L186.183 193.398L185.246 193.465L184.176 194.869L184.845 197.676L186.384 200.284L186.785 202.222L185.112 204.161L183.172 204.762L182.102 204.896L181.5 205.632L181.567 206.233L182.37 206.969L183.908 207.771L187.655 208.773L189.394 209.643L191.067 211.648L191.936 213.72L192.672 218.266L191.869 219.937L190.331 219.804L189.193 218.801L187.855 217.13L187.32 215.258L188.056 213.654L187.253 212.45L184.243 211.915L177.954 212.25L177.084 213.587L177.486 216.06L177.018 217.531L176.148 219.068L176.014 222.01L176.616 225.219L175.813 225.419L174.208 224.684L170.662 224.283L169.458 224.751L169.926 225.954L171.666 226.622L172.268 229.297L172.535 233.709L175.011 238.522L175.546 240.795L175.746 243.135L176.415 245.809L176.282 246.811L175.68 247.613L172.067 250.889L162.634 246.811L160.359 247.079L158.553 247.012L157.617 247.212L155.81 249.084L154.807 249.352L153.536 248.884L145.842 247.948L130.99 238.188L130.254 237.118L128.783 236.182L127.913 235.781L128.515 234.645L129.786 232.706L133.198 232.438L137.078 233.241L138.149 232.372L138.082 230.433L138.416 227.692L138.082 225.954L137.413 224.951L136.61 225.152L135.071 225.82L132.061 228.895L131.191 227.558L130.723 225.82L129.786 225.352L128.649 225.085L126.107 223.748L124.3 222.277L123.966 220.606L124.501 219.937L125.571 219.536L129.05 219.135L130.656 216.729L132.061 213.654L133.198 212.317L133.399 211.18L133.332 210.512L134.402 209.977L136.543 209.308L137.814 208.64L138.149 207.436L138.818 207.303L139.955 210.044L140.691 210.445L141.828 209.442L143.032 207.503L143.768 204.361L142.765 200.417L140.825 198.479L139.42 197.543L137.68 195.47L134.001 187.181L131.592 183.571L132.128 182.501L133.934 180.496L134.737 180.362L136.342 183.771L137.413 184.106L138.55 183.571L139.554 182.635L142.029 181.766V180.696L141.627 179.76L140.557 178.49L139.955 176.752L141.226 176.418L146.31 179.226Z" fill="#F6F7F9" stroke="#C4CEDC" stroke-width="2" stroke-linecap="round" stroke-linejoin="round"/>
<path d="M168.989 114.18L174.208 117.523L178.088 121.534L179.56 123.94L181.567 131.027L178.757 132.029L175.01 134.503L173.606 137.778L174.341 140.519L176.148 142.859L177.285 145.667L178.422 147.405L180.162 148.274L181.232 148.341L181.901 148.675L182.503 149.41L183.44 149.878L184.042 151.082L184.644 153.221L185.714 154.959L186.517 156.764L187.052 161.31L186.25 162.446L179.961 164.184L176.482 166.19L174.341 168.53L174.141 170.268L174.208 170.736L171.063 169.265L168.789 169.131L165.644 170L163.704 171.404L162.5 171.671L160.961 171.738L159.891 171.939L159.222 172.474L159.289 173.744L163.704 177.755L166.247 181.498V182.234L164.975 183.972L162.366 184.908L159.49 184.172L156.479 182.568L149.053 182.301L147.448 181.298L146.31 179.226L145.976 178.29L145.307 177.086L144.705 176.552L135.138 170.736L134.67 169.599L135.272 168.062L136.61 166.591L137.346 163.516L137.413 159.104L136.744 156.697L136.008 156.563L135.941 156.296L136.208 155.694L136.275 155.427L136.008 154.357L136.075 154.023L136.476 153.689L136.142 153.154L135.74 152.352L135.406 151.416L135.272 150.547L135.071 150.079L133.934 148.876L133.8 148.675L116.406 145.199L115.403 144.196L110.586 133.5L110.385 132.096V129.957L111.054 128.62L116.272 123.272L117.744 120.865L118.814 120.13L121.089 118.994L122.962 116.988L124.166 116.253L125.371 115.718L136.275 114.448L139.553 114.983L141.761 114.581L150.057 115.45L152.666 114.448L153.87 113.512L154.271 113.244L155.275 112.977L156.68 113.512L159.289 116.253L160.292 116.052L160.761 115.25V114.515L161.229 113.779L161.898 113.512L162.835 114.047L164.106 114.247L165.444 113.311L166.715 112.91L168.989 114.18Z" fill="#F6F7F9" stroke="#C4CEDC" stroke-width="2" stroke-linecap="round" stroke-linejoin="round"/>
<path d="M218.228 137.177L227.393 144.998L229.333 146.001L234.953 150.279L235.354 151.483V152.352L227.125 151.483L223.245 151.75L222.242 153.287L223.981 155.694L225.252 156.831L227.728 157.566L229.333 158.903L228.196 162.647L226.59 166.056L226.122 167.66L224.985 168.797L217.96 172.206L216.087 174.078L215.619 175.749L215.886 177.019L216.823 179.025L217.559 180.228L216.488 180.094L214.481 180.228L208.26 182.902L206.654 182.969L204.781 183.571L202.975 184.44L196.887 186.312L195.415 187.381L194.411 189.788L188.323 189.921L187.454 189.32L182.57 188.116L181.567 188.317L177.151 187.582L174.81 185.777L175.813 184.172L174.542 182.501L171.665 180.897L167.852 180.83L166.246 181.498L163.704 177.755L159.289 173.744L159.222 172.473L159.891 171.939L160.961 171.738L162.5 171.671L163.704 171.404L165.644 170L168.789 169.131L171.063 169.265L174.208 170.735L174.141 170.267L174.341 168.529L176.482 166.19L179.961 164.184L186.25 162.446L187.052 161.31L186.517 156.764L185.714 154.959L184.644 153.221L184.042 151.081L183.44 149.878L182.503 149.41L181.901 148.675L181.232 148.341L180.162 148.274L178.422 147.405L177.285 145.667L176.148 142.859L174.341 140.519L173.605 137.778L175.01 134.503L178.757 132.029L181.567 131.026L184.845 132.631L184.912 133.366L185.38 134.703L187.32 137.177L189.394 139.182L194.144 140.586L195.95 140.519L197.02 140.72L197.756 141.254L200.901 141.856L202.64 141.589L209.129 138.046L209.865 137.778L210.601 137.377L213.478 136.775L218.228 137.177Z" fill="#F6F7F9" stroke="#C4CEDC" stroke-width="2" stroke-linecap="round" stroke-linejoin="round"/>
<path d="M51.8474 35.9654L47.8334 40.3106L47.0306 42.1156L46.0271 46.862L46.4954 49.4023L47.432 51.742L47.3651 53.9481L46.094 56.2878L40.1399 62.4381L38.1998 65.7137L37.7984 67.6524L38.2667 69.1231L40.4744 72.0645H40.742V72.6662L41.2103 73.2678L41.411 73.6021L41.6117 74.4043L41.6786 74.8722L41.4779 75.3402L41.411 76.744L42.6152 88.5765L43.3511 89.5124L43.5518 90.0472L43.8194 92.7212L43.6856 92.9218L43.0166 93.3897L42.8828 93.8577L43.1504 94.5262L43.6187 95.4621L43.8194 96.1974L46.1609 99.0051L47.0306 101.011L46.6292 106.426L47.0975 108.765L48.3686 110.704L58.4705 117.389L62.9528 118.191L66.6992 118.258L71.4491 122.603L72.0512 123.74L76.3328 126.213L77.8715 127.55L79.4771 128.219L80.4806 127.55L81.0158 126.681L81.1496 126.28L81.6848 125.077L82.8221 123.606L84.896 122.269L86.5685 121.935L87.4382 122.002L88.3748 121.133L89.8466 120.13L91.4522 120.397L92.5226 121.534L93.8606 122.403L95.6669 122.804L96.7373 123.74L96.8711 124.609L96.4697 125.277L97.8077 129.288V132.163L99.0119 133.968L102.424 134.436L110.586 133.5L115.402 144.196L114.533 144.463L113.529 145.132L113.395 145.934L113.663 146.669L113.462 147.338L112.86 148.541L111.388 150.212L108.779 151.349L104.899 151.015L101.287 150.012L99.9485 149.076L99.3464 148.474L98.6774 147.873L98.2091 147.204L97.9415 146.669L97.5401 146.335L79.6109 148.006L70.9139 146.803L67.9034 147.94L67.1675 148.942L67.1006 151.015L65.4281 153.555L59.8085 155.36L58.7381 156.496L58.3367 157.232L57.6008 157.967L57.1325 160.106L55.1924 162.245L54.6572 163.649L53.2523 164.986L52.115 165.722L51.3122 165.454H50.4425L49.2383 166.056L48.6362 166.256L47.9672 166.724L47.1644 166.992L46.4285 166.858L45.8264 166.256L45.5588 165.521L45.8264 164.652L46.2278 163.783L46.6292 163.115L46.763 162.245L46.3616 161.376L45.2912 159.973L45.0905 159.104L45.1574 157.098L45.0236 156.296L44.4884 155.761L43.8863 155.293L43.6856 154.758L44.4884 154.223L43.8863 153.354L43.6187 152.619L43.5518 150.814L43.3511 149.811L43.0166 148.742L42.4145 147.94L41.5448 147.873L39.6047 148.675L38.6012 148.742L37.6646 148.274L37.2632 147.806L36.8618 146.469L36.059 145.399V144.798L35.5907 144.33L34.9217 143.728L34.4534 143.059L34.5203 142.391L35.1893 142.057L35.2562 141.121L35.5907 139.65L36.2597 138.113L36.3266 137.31L35.9921 136.374L35.1224 134.837L34.5872 134.102L34.052 133.834L33.5837 133.767L33.1823 133.7L32.8478 133.433L32.045 132.631L31.5767 132.564L30.5063 132.631L29.5697 132.43L28.9007 131.962L28.6331 131.227L29.0345 130.157L30.2387 128.62L30.707 127.884L30.9077 126.815L30.707 125.879L30.4394 125.144L30.2387 124.408L30.4394 123.205L30.7739 122.737L30.8408 122.269L30.6401 121.868L29.8373 121.467L29.4359 121.066L29.2352 120.932H28.9007L28.2317 121.133L27.8972 121.066L27.6965 120.865L27.4289 119.929L26.693 119.528L26.4923 119.261L26.1578 118.459V118.057L26.6261 116.787L26.8937 115.985L26.6261 115.25L26.3585 114.514L26.2247 113.645L26.4254 112.843L26.8937 112.509L27.362 112.175L27.7634 111.64L27.8972 110.236L27.0944 109.367L25.0874 108.097L24.8198 107.495L24.6191 106.893L24.2846 106.492L23.0135 106.626L22.7459 106.292L22.2107 105.022L21.6755 104.621L20.4044 104.554L19.9361 104.286L19.7354 103.551L20.2037 102.214L19.8692 100.61L19.9361 99.5399L20.1368 98.4703L20.4713 97.6013L20.3375 96.8659L19.5347 96.2643L18.8657 95.4621L18.9995 94.1251L19.2671 93.724L20.4713 92.7881L20.8727 92.1864L20.7389 91.7853L19.4678 90.2478L18.665 89.5124L17.6615 89.0445L16.7249 89.1782L16.2566 89.3787L15.7214 89.5793H15.2531L14.9855 89.0445L15.1862 88.1086L15.1193 87.8411L14.8517 87.6406L14.3834 87.7743L14.1158 87.7075L13.7813 87.2395L13.4468 86.1699L13.2461 85.7688L12.8447 85.5014L11.6405 84.8997L11.1722 84.766L8.96454 85.0334L7.76035 84.8329L7.15825 83.897L7.29204 83.3622L7.96104 82.4931L7.89415 81.8915L7.76035 81.2898L7.82724 80.755L8.02795 80.2202L8.63004 79.0169L9.49974 78.081L9.76735 77.4125L10.0349 76.4766L10.3694 75.875L10.8377 75.5407L11.5067 75.2065L11.7074 74.9391L11.4398 74.1369V73.7358L11.7743 73.4684L12.3764 73.201L12.644 72.8667L12.8447 72.2651L13.0454 71.396L13.1792 70.5269L13.0454 68.3877L13.982 67.3181L15.2531 66.3154L16.0559 65.1789L15.989 64.5104L15.7883 63.7751L15.32 63.1734L14.8517 62.7723L14.3165 62.5718L13.8482 62.6386L12.7109 63.3071L10.9715 63.0397L10.1687 62.5718L10.0349 62.1707L10.1687 61.0342L10.1018 59.8978V59.4298L10.5032 57.6248L10.5701 56.8895L10.2356 54.6166L10.4363 52.8785V51.9426L10.1687 51.2072L9.63354 50.7393L9.03144 50.5387L8.63004 50.3382L8.69695 50.0708L9.03144 49.7365L9.16525 49.4023L8.96454 48.6001L8.83074 48.1321L8.76385 47.5305L8.89764 46.6614L9.83424 43.4526L9.63354 42.1156L7.82724 41.2465L7.29204 40.7117L6.82374 40.0432L6.22165 38.372V37.5698L5.61954 37.1018L5.41885 36.7676L5.28505 36.0991L4.95055 35.4306L5.48574 34.6284L6.02095 34.1604L6.35544 33.6256L6.02095 31.8875L6.22165 31.1522L6.89065 29.8152L6.62304 28.7456L5.28505 27.7428L3.74635 26.9406L2.80975 26.2721V25.871L3.01045 25.0688V24.6677L2.60905 23.7986L2.47525 22.9964L2.54215 22.3948L2.14075 21.5257L1.94005 20.5898L1.80625 20.1219L0.869645 19.0523L0.668945 18.5175L1.07035 17.9827L1.73935 17.5147L2.27455 17.3142H2.80975L3.61255 17.381L4.41535 17.3142L6.28854 16.8462L7.09135 16.9131L9.49974 18.1164L10.3694 18.1832L11.1053 17.9827L12.9116 17.1805L13.5806 16.7125L14.1827 15.7766V14.9744L14.0489 14.1722L14.2496 13.1694L14.5841 12.6346V12.0998L14.3834 10.8965L14.4503 10.1612L14.651 9.55954L15.7883 7.21978L15.989 6.61813L16.0559 5.94962L15.9221 4.47892L16.0559 3.94412L19.7354 0.935858L20.6051 0.668457L21.1403 1.06956L22.01 2.47341L22.5452 3.00821L24.5522 3.94412L25.2212 4.54577L28.0979 6.61813L28.1648 6.68498L28.7669 7.08608L29.5028 7.21978H30.3056L30.1049 7.55403L30.8408 8.08883L31.2422 9.09159L32.2457 13.37L32.714 14.3059L33.383 14.9076L33.1154 15.5092L33.2492 15.7766L34.1189 16.4451L34.9886 16.512L35.2562 17.0468L36.5273 17.9158L37.1294 18.9186L37.4639 19.3865L37.7984 19.5202L38.066 19.9882L38.9357 21.86L39.4709 22.7959L39.8054 25.0019L40.0061 25.6704L40.9427 25.403L44.5553 26.6063L45.1574 26.2052L45.4919 26.2721L45.6257 26.5395L45.4919 27.3417L45.8264 27.4754L46.2947 27.6091L46.763 27.8765L46.9637 28.3445L46.6961 29.013L46.8968 29.4809L47.5658 29.882L47.8334 30.2163L48.3017 31.5533L48.4355 31.9544L48.77 32.1549L49.5728 32.556L49.7735 32.8234L49.7066 33.2914L49.439 34.0267L49.5059 34.4947L49.9073 35.0295L50.6432 35.4974L51.446 35.8985L51.8474 35.9654Z" fill="#F6F7F9" stroke="#C4CEDC" stroke-width="2" stroke-linecap="round" stroke-linejoin="round"/>
<path d="M154.271 113.244L153.87 113.512L152.666 114.448L150.057 115.451L141.761 114.581L139.553 114.983L136.275 114.448L125.371 115.718L124.166 116.253L122.962 116.988L121.089 118.994L118.814 120.13L117.744 120.865L116.272 123.272L111.054 128.62L110.385 129.957V132.096L110.586 133.5L102.424 134.436L99.0121 133.968L97.8079 132.163V129.289L96.4699 125.278L96.8713 124.609L96.7375 123.74L95.6671 122.804L93.8608 122.403L92.5228 121.534L91.4524 120.397L89.8468 120.13L88.375 121.133L87.4384 122.002L86.5687 121.935L84.8962 122.269L82.8223 123.606L81.685 125.077L81.1498 126.28L81.016 126.681L80.4808 127.55L79.4773 128.219L77.8717 127.55L76.333 126.213L72.0514 123.74L71.4493 122.604L66.6994 118.258L62.953 118.191L58.4707 117.389L48.3688 110.704L47.0977 108.766L46.6294 106.426L47.0308 101.011L46.1611 99.0054L43.8196 96.1977L43.6189 95.4623L43.1506 94.5264L42.883 93.8579L43.0168 93.39L43.6858 92.922L43.8196 92.7215L43.552 90.0475L43.3513 89.5127L42.6154 88.5768L41.4112 76.7443L41.4781 75.3404L41.6788 74.8725L41.6119 74.4045L41.4112 73.6023L41.2105 73.2681L40.7422 72.6664V72.0648H40.4746L38.2669 69.1234L37.7986 67.6526L38.2 65.714L40.1401 62.4383L46.0942 56.2881L47.3653 53.9484L47.4322 51.7423L46.4956 49.4025L46.0273 46.8622L47.0308 42.1159L47.8336 40.3109L51.8476 35.9657L52.3828 36.1662L53.1187 36.5673L53.5201 36.6342L54.4567 36.701L56.4637 37.169H59.5411L62.0833 38.2386L69.3754 39.7761L71.65 40.7789L73.657 41.3137L76.333 40.9126L76.9351 40.6452L78.7414 39.375L79.4104 39.0408L79.8787 38.9071L81.2167 38.8402L82.0195 38.5728L82.4209 38.506L82.8892 38.6397L86.5018 40.2441L87.1039 40.4446L87.706 40.3778L88.5088 40.1104L89.044 39.7093L89.5792 39.3082L90.0475 38.7734L90.4489 38.1049L91.4524 36.0994L91.8538 35.4977L92.5228 34.9629L94.5298 33.9601L95.065 33.4253L95.6671 32.0215L96.0685 31.4198L96.9382 30.885L97.4065 30.3502L98.2762 28.8127L98.7445 28.2779L99.2797 27.8099L99.8818 27.5425H100.417L101.354 27.9436L101.889 28.0773L102.29 28.0105L104.364 26.874L104.632 27.7431L104.765 27.8099L104.832 28.2779L105.301 28.8127L106.371 29.3475L106.839 30.2834L107.508 32.9574L107.375 33.8264L107.174 34.6286L106.438 35.6314L103.427 37.7038L101.287 37.9712L99.8818 38.7734L98.3431 39.1076L96.8044 37.7706L96.0685 37.8375L96.0016 38.506L95.9347 39.7761L95.734 41.0463L95.2657 41.4474L93.3925 40.9794L92.1214 41.1131L91.7869 41.7816L90.8503 42.3164L89.4454 44.1882L88.9102 46.9291L89.8468 49.3357L91.6531 50.3384L93.9946 49.4694L96.403 48.1992L98.6776 47.5307L103.829 49.0014L105.301 47.865L106.572 46.06L108.713 44.3888L109.181 43.854L108.646 43.6534L108.177 42.9181L112.124 36.0325L114.734 34.2275L116.138 34.3612L118.48 32.9574L120.688 30.9519L122.093 31.4867L121.624 36.5673L122.159 37.3027L122.226 40.6452L124.233 45.6589L123.899 48.6672L122.561 50.3384L122.628 51.6086L124.434 52.6114L125.103 54.8174L123.431 55.9539L120.955 55.5528L118.547 56.2213L117.142 57.8257L114.332 59.8312L113.262 61.9035L112.392 63.04L111.656 64.6444L111.522 66.9173L111.924 68.2543L113.596 67.6526L115.804 67.3184L116.874 68.388L117.343 68.7891L118.346 68.9228L126.173 67.7864L128.582 68.9897L129.585 72.2653L129.786 75.7415L131.525 80.0868L134.268 83.8304L136.61 85.9696L136.944 86.705L136.61 87.9751L135.807 89.5795L135.539 93.5905L136.543 98.3369L139.955 100.476L140.156 100.342L140.891 100.476L143.434 101.813L144.37 102.615L144.638 105.757L145.574 107.896L147.648 109.3L148.384 110.036L149.99 111.373L149.722 112.242H149.99L150.257 111.841L150.793 111.64H151.997L152.465 111.907L153 112.843H153.268L154.271 113.244Z" fill="#F6F7F9" stroke="#C4CEDC" stroke-width="2" stroke-linecap="round" stroke-linejoin="round"/>
<path d="M133.332 210.511L133.399 211.18L133.198 212.316L132.061 213.653L130.656 216.728L129.05 219.135L125.571 219.536L124.501 219.937L123.966 220.606L124.3 222.277L126.106 223.748L128.649 225.085L129.786 225.352L130.723 225.82L131.191 227.558L132.061 228.895L135.071 225.82L136.61 225.151L137.413 224.951L138.082 225.954L138.416 227.692L138.082 230.433L138.148 232.371L137.078 233.24L133.198 232.438L129.786 232.705L128.515 234.644L127.913 235.781L125.504 235.446L124.501 235.781L123.899 236.182L123.765 237.118L124.099 239.39L123.899 241.73L122.226 242.599L119.751 242.733L117.744 243.736L117.543 244.337L117.61 244.738L118.078 245.206L118.212 245.608L118.279 246.075L118.212 246.811V247.279L118.346 247.613L117.878 248.415L117.276 248.816L116.674 248.683L115.536 248.549L109.984 249.819V251.156L110.92 252.56L111.455 253.63L110.92 256.304L110.251 257.707L104.832 257.44L98.9451 258.978L94.8642 258.643L86.1672 255.836L83.625 253.63L81.3504 252.226L78.5406 251.557L75.7308 251.357L70.5795 249.217L65.2275 249.886L63.1536 249.819L62.5515 250.621L63.0198 252.159L62.6184 254.833L61.3473 259.044L60.6114 265.061L59.8086 265.663L59.6748 265.395L58.0692 264.192L57.534 263.657L57.0657 262.989L56.7312 262.32L56.4636 261.585L56.3298 260.716L56.0622 260.047L55.5939 259.579L55.0587 259.111L54.5904 258.576L51.513 252.961L51.3123 252.894L50.3088 253.028L49.3722 252.961L48.6363 252.493L47.9004 251.49L48.6363 251.156L49.2384 250.621L49.7736 249.485L50.1081 248.415L50.4426 247.479L51.3123 246.744L51.8475 246.209L53.2524 245.073L53.5869 244.605V244.137L53.1186 243.401L52.9848 242.934L53.0517 242.532L53.52 241.73L53.6538 241.396L54.1221 239.39L54.189 238.321L54.0552 237.385L53.52 236.583L52.7841 236.115H51.9813L51.3123 236.65L50.6433 236.182L50.2419 235.313L49.1715 231.836L49.506 231.302L51.3123 230.9L51.7806 230.366L52.182 229.764V228.494L51.9144 226.823L52.0482 225.619L53.3862 226.02L54.5904 226.689L55.6608 226.956L58.0692 227.09L58.8051 227.424L59.0058 227.357L59.2065 226.622L59.2734 226.154L59.1396 225.887L58.7382 225.352L58.6713 224.683L58.6044 223.881L58.5375 223.079L58.0023 222.344L57.8016 221.541L57.534 221.207L56.9319 220.806L56.4636 220.204L56.7312 219.536L57.6678 218.466L57.8016 217.932L57.6678 217.129L57.8016 216.595L58.1361 216.127L58.6044 215.926L59.541 215.859L60.5445 215.191L60.6783 214.121L60.6114 213.051L60.879 212.249H61.6818L62.6853 212.784L63.6219 213.118L64.1571 212.383L64.4247 211.38L64.6923 210.578L64.8261 209.776L64.4916 208.706L64.3578 208.105V207.57L64.5585 207.102L64.893 206.701L65.6289 206.567L65.8965 206.3L65.8296 205.564L66.2979 204.762L66.5655 204.695L67.1007 204.829L67.8366 205.297L68.1711 205.497L68.6394 205.431L69.6429 205.899L70.1781 205.765L70.7133 205.297L71.6499 204.695H71.9844L72.5865 204.829L73.4562 204.561L73.9245 204.428L74.259 204.227L74.5266 203.759L73.8576 202.89L74.3259 201.687L75.0618 200.417L75.1956 199.347L74.6604 198.879H73.3224L72.8541 198.545L72.7203 197.876L73.0548 197.342L73.4562 196.807L73.6569 196.406L74.5935 196.74L81.2166 201.887L89.5122 213.319L90.984 214.322L91.7868 214.255L91.9206 215.124L91.653 216.394V218.065L92.8572 219.335L94.9311 219.068L98.0085 219.469L100.35 219.135L101.688 218.399L101.822 216.996L102.558 216.127L103.628 215.926L104.364 215.057L104.431 213.854L104.832 212.918L106.304 212.45L108.378 210.244L110.519 210.043L111.857 210.177L112.593 209.776L112.793 207.035L113.128 206.166L118.078 205.832L119.283 204.762L119.416 203.358L118.814 202.088L119.149 201.286L120.152 201.353L121.557 202.556L125.504 204.361L130.789 210.311L132.261 210.578L133.332 210.511Z" fill="#F6F7F9" stroke="#C4CEDC" stroke-width="2" stroke-linecap="round" stroke-linejoin="round"/>
<path d="M227.594 123.406L227.259 124.676L226.055 126.347L224.249 127.283L222.844 128.687L222.108 132.23L219.967 136.04L218.228 137.177L213.478 136.776L210.601 137.377L209.865 137.778L209.129 138.046L202.64 141.589L200.901 141.856L197.756 141.255L197.021 140.72L195.95 140.519L194.144 140.586L189.394 139.182L187.32 137.177L185.38 134.703L184.912 133.366L184.845 132.631L181.567 131.026L179.56 123.94L178.088 121.534L174.208 117.523L168.989 114.18L168.655 113.111L168.32 110.838L168.521 108.899L168.454 107.696L167.317 106.225L165.109 104.487L163.169 102.481L157.483 93.4567L154.271 84.6324L154.338 82.2258L155.476 80.4877L155.743 78.148L156.479 76.4767L164.306 67.1845L164.574 66.3823L164.039 65.7807L162.768 65.5133L161.898 65.179L161.697 64.31L161.028 63.3741L159.891 62.4382L159.69 61.9702L161.296 62.1039L162.099 61.8365L163.035 61.4354L163.905 60.9006L164.641 60.2321L165.377 59.7642L166.514 59.831L168.722 60.299L168.856 64.1763L168.454 65.4464L168.655 66.3823L168.722 68.7221L169.391 70.3265L169.859 75.7414L171.331 80.822L171.063 81.691L170.996 82.6938L171.13 83.6297L171.398 84.2982L172.669 86.3037V86.7048L172.468 87.4402L172.87 89.1783L173.606 90.7827L175.345 93.4567L177.686 95.8633L180.162 97.6682L185.781 100.61L188.39 101.479L201.637 103.284L203.108 103.016L204.246 102.548L205.383 102.348L206.587 103.016L206.253 103.083L205.718 102.883L205.45 103.284L208.327 104.42L212.809 105.423L214.415 106.091L215.552 107.094L215.418 108.699L215.686 109.3L216.154 110.838L216.488 111.506L216.957 112.242L217.76 114.581L218.83 116.319L220.034 117.456L222.509 119.395L224.249 121.467L224.784 121.734L225.453 121.935L227.594 123.406Z" fill="#F6F7F9" stroke="#C4CEDC" stroke-width="2" stroke-linecap="round" stroke-linejoin="round"/>
<path d="M146.31 179.225L141.226 176.418L139.955 176.752L140.557 178.49L141.627 179.76L142.029 180.696V181.766L139.553 182.635L138.55 183.571L137.412 184.105L136.342 183.771L134.736 180.362L133.934 180.495L132.127 182.501L131.592 183.571L134.001 187.18L137.68 195.47L139.419 197.542L140.824 198.478L142.764 200.417L143.768 204.361L143.032 207.503L141.828 209.442L140.691 210.444L139.955 210.043L138.817 207.302L138.148 207.436L137.814 208.639L136.543 209.308L134.402 209.976L133.332 210.511L132.261 210.578L130.789 210.311L125.504 204.361L121.557 202.556L120.152 201.353L119.149 201.286L118.814 202.088L119.416 203.358L119.283 204.762L118.078 205.832L113.128 206.166L112.793 207.035L112.593 209.776L111.857 210.177L110.519 210.043L108.378 210.244L106.304 212.45L104.832 212.918L104.431 213.854L104.364 215.057L103.628 215.926L102.558 216.127L101.822 216.996L101.688 218.4L100.35 219.135L98.0084 219.469L94.931 219.068L92.8571 219.335L91.6529 218.065V216.394L91.9205 215.124L91.7867 214.255L90.9839 214.322L89.5121 213.319L81.2165 201.888L74.5934 196.74L73.6568 196.406L73.7237 196.205L73.4561 195.002L72.6533 193.999L70.7132 192.328L68.5055 188.785L68.1041 187.515L68.171 186.779L68.6393 186.311L68.7731 185.977L68.2379 184.774L67.9034 183.972L68.2379 183.905L69.3083 184.239L69.3752 183.637L69.0407 181.966V181.298L69.1745 180.562L69.4421 179.894L69.9104 179.359L70.5794 179.158L73.0547 179.225L73.7237 179.025L75.4631 178.156L76.8011 178.223L77.537 178.089L78.0722 177.621L78.5405 176.886L79.6109 176.217L80.1461 175.749L80.5475 175.014L80.6144 174.345L80.3468 173.81L79.8116 173.409L79.0757 173.342L78.4067 173.61L77.8715 174.011L77.2025 174.278L75.7307 174.613H74.9948L74.2589 174.345L73.7906 173.877L73.6568 173.543L73.4561 172.674L71.9843 172.072H71.3822L70.847 172.273L70.178 172.674L69.509 172.875L67.3013 172.808L66.164 173.209L65.0936 173.008L64.2908 173.744L63.6218 174.078L62.8859 174.145L62.3507 173.744L61.9493 173.677L60.6782 174.078L60.0092 173.877L59.6078 173.342L58.7381 171.136L57.1325 168.864L56.0621 167.861L55.1255 167.727L54.7241 167.393L53.3861 166.256L52.115 165.722L53.2523 164.986L54.6572 163.649L55.1924 162.245L57.1325 160.106L57.6008 157.967L58.3367 157.232L58.7381 156.496L59.8085 155.36L65.4281 153.555L67.1006 151.015L67.1675 148.942L67.9034 147.939L70.9139 146.803L79.6109 148.006L97.5401 146.335L97.9415 146.669L98.2091 147.204L98.6774 147.873L99.3464 148.474L99.9485 149.076L101.286 150.012L104.899 151.015L108.779 151.349L111.388 150.212L112.86 148.541L113.462 147.338L113.663 146.669L113.395 145.934L113.529 145.132L114.533 144.463L115.402 144.196L116.406 145.199L133.8 148.675L133.934 148.875L135.071 150.079L135.272 150.547L135.405 151.416L135.74 152.352L136.141 153.154L136.476 153.689L136.074 154.023L136.008 154.357L136.275 155.427L136.208 155.694L135.941 156.296L136.008 156.563L136.743 156.697L137.412 159.103L137.346 163.516L136.61 166.591L135.272 168.061L134.67 169.599L135.138 170.735L144.705 176.551L145.307 177.086L145.976 178.289L146.31 179.225Z" fill="#F6F7F9" stroke="#C4CEDC" stroke-width="2" stroke-linecap="round" stroke-linejoin="round"/>
<path d="M570.389 247.012L570.791 250.688L571.794 257.039L571.727 258.644L570.657 261.05L570.389 262.454L571.192 265.462L573.4 267.601L576.21 268.738L578.886 268.938L581.428 268.805L582.766 268.872L583.97 269.206L584.505 269.473L585.04 270.008L585.375 270.61L585.04 271.145L584.572 271.345L582.9 271.479L582.298 271.88L582.231 272.482L582.364 273.885L582.164 274.688L581.829 275.156L580.692 275.891L579.688 276.76L576.678 280.838L573.132 285.651L572.932 286.253L572.998 289.462L573.467 292.136L576.879 303.567L579.555 312.659L582.231 322.753L582.164 326.029L581.695 329.304L581.495 329.973L580.558 331.176L580.291 331.778L580.424 332.045L580.96 332.446L580.625 333.315L580.692 333.716L581.026 334.585L581.093 335.454L580.826 337.995L580.893 339.933L581.361 343.744L580.96 346.752L581.026 347.688L581.562 349.627L581.963 353.437L583.1 353.905L592.466 355.309L593.068 357.649L592.6 362.529L590.392 367.877L588.72 373.76L587.984 384.322L588.118 387.397L589.924 395.152L589.857 396.422L589.322 397.224L588.118 397.692L583.435 397.893L580.625 395.419L575.139 387.665L570.925 384.523L567.713 383.654L566.911 383.052L565.706 381.715L563.766 381.381L537.876 388.734L536.739 389.269L522.957 369.147L518.007 365.47L478.603 347.621L479.138 346.819L480.944 342.206L484.49 336.658L485.761 333.115L490.377 326.898L490.912 325.026L491.247 323.02L492.049 320.747L492.116 318.475L490.711 316.202L489.641 313.929V312.659L488.571 311.522L488.102 310.586L487.835 309.65L488.437 308.18L489.373 306.642L489.641 305.372L489.44 302.23L490.31 301.227L491.782 298.687L492.919 293.807L497.736 286.52L508.641 279.3L510.179 277.696L511.852 274.955L512.119 273.752L513.123 271.813L507.905 268.003L507.57 266.799L507.236 265.797L506.433 265.262L505.429 264.326L505.296 262.521L505.831 260.181L506.701 258.042L506.834 256.371L506.433 254.566L507.169 251.491L507.503 248.683L506.165 246.544L505.965 245.407L506.5 244.204L508.306 243.535L513.859 244.204L517.405 245.34L518.341 244.605L519.345 243.535L529.58 241.998L532.792 240.126L536.404 238.789L538.277 240.393L541.622 245.942L546.172 247.546L567.713 247.48L570.389 247.012Z" fill="#F6F7F9" stroke="#C4CEDC" stroke-width="2" stroke-linecap="round" stroke-linejoin="round"/>
<path d="M570.39 247.011L567.714 247.479L546.172 247.546L541.623 245.942L538.278 240.393L536.404 238.789L532.792 240.126L529.581 241.998L519.345 243.535L518.341 244.605L517.405 245.34L513.859 244.204L508.306 243.535L506.5 244.204L505.965 245.407L506.166 246.543L507.504 248.683L507.169 251.49L506.433 254.565L506.835 256.37L506.701 258.042L505.831 260.181L505.296 262.521L505.43 264.326L506.433 265.261L507.236 265.796L507.57 266.799L507.905 268.002L513.123 271.813L512.12 273.751L511.852 274.955L510.18 277.696L508.641 279.3L497.736 286.52L492.919 293.807L491.782 298.687L490.31 301.227L489.441 302.23L488.571 301.561L485.761 297.216L482.817 295.344L480.61 294.341L479.74 293.673L476.796 292.002L474.589 286.854L471.98 269.406L470.642 266.732L469.103 264.86L460.272 266.933L453.448 266.064L451.776 263.523L449.635 251.49L449.903 244.471L454.318 231.302L456.66 227.09L470.374 217.33L473.719 214.054L474.187 211.38L472.983 208.706L462.881 200.952L459.068 199.949L450.371 202.222L436.59 208.706L422.474 212.45L428.026 205.564L432.509 201.42L436.389 199.08L443.748 196.339L444.751 195.537L446.223 192.127L452.244 181.766L452.779 178.757L450.505 176.15L442.343 169.465L441.339 167.059L440.269 161.911L439.6 153.822L440.135 149.143L441.54 146.469L442.41 142.458L441.607 139.115L440.202 138.246L439.065 138.179L438.396 138.38L438.53 137.243L438.262 135.706L438.53 133.7L440.537 131.093L448.832 124.274L454.385 124.542L477.265 137.31L486.831 138.781L489.441 138.112L490.779 136.909L491.916 133.5L491.648 132.163L490.377 131.427L489.976 130.759L490.176 129.556L492.25 127.349L492.117 126.347L490.979 125.812L490.243 124.742L489.976 123.606L489.507 123.806L489.039 125.143L488.103 125.277L487.434 124.074L486.497 123.004L484.824 121.801L484.624 120.33L486.029 118.592L488.103 112.442L489.374 110.704L489.708 109.367L489.775 108.498L490.043 107.762L490.979 106.626L491.715 105.222L491.514 103.484L490.578 101.545L487.434 98.6039L486.631 96.7989L486.229 95.3282L485.56 94.4592L470.04 93.7238L468.702 92.7879L469.304 91.3172L469.705 89.646V87.7742L470.976 86.4372L475.191 83.83L475.86 83.6963L476.127 83.7631L476.395 84.0305L476.73 84.699L476.93 84.9664L477.465 85.167H478.001L478.603 84.9664H479.138L480.342 85.3007L485.761 87.9079L488.036 88.4427L489.24 88.5095L489.775 88.6432L490.377 88.9106L490.645 89.2449L490.578 90.1808L491.113 91.2504L491.247 91.5178L491.314 92.32V92.9216L491.514 93.4564L492.117 93.9244L492.652 94.1918L495.395 94.5929L495.796 94.7934L496.733 95.3951L497.201 95.5288L500.345 95.2614L500.947 94.9271L501.416 94.2586L501.75 93.5233L502.152 92.8548L502.687 92.5205L503.356 92.4537L503.891 92.7211L505.63 94.2586L507.169 94.9271L507.905 94.994L508.708 94.9271L508.975 94.7266L509.444 94.2586H509.845L510.581 94.4592L511.317 94.2586L511.785 93.7238L511.852 93.0553L512.053 92.7211L514.127 93.9244L516.803 94.526L518.208 95.1277L518.676 95.5288L519.144 95.6625L520.148 95.7962L520.482 95.9967L521.619 97.2L526.236 100.543L526.971 100.609L528.912 99.7403L529.714 99.9409L530.45 100.609L531.119 101.478L531.253 102.08L531.119 103.083L531.454 103.885L531.119 104.687L530.985 105.222L531.052 106.091L531.721 109.099L532.123 109.701L534.33 111.506L535.2 112.509L534.933 112.977L534.799 113.645L534.933 113.979L535.468 114.113L536.003 114.581L536.538 114.715L537.675 114.314L538.144 114.381L538.746 114.982L539.013 115.718L539.147 116.52L539.415 117.255L539.883 117.589L540.218 117.523L540.418 117.255L540.82 116.653L541.154 116.453H541.556L546.506 118.124L548.781 119.996L550.052 120.798L552.862 121.266L554.2 121.868L555.203 123.205L556.541 126.012L558.08 128.419L561.759 132.898L562.495 134.101L563.499 136.775L564.235 137.979L565.372 138.647L583.101 138.313L590.727 138.179L592.467 138.513L593.871 138.647L594.139 140.118L594.54 141.187L594.607 141.722L594.54 142.257L594.407 142.725L594.005 143.46L593.871 143.928L593.938 144.463L594.139 145.132L593.403 148.541L593.202 150.68L593.671 151.884L593.403 152.485L594.005 152.886L594.407 153.354L594.607 154.29V155.293L594.741 155.694L595.209 156.496L595.745 159.17L595.812 160.44V160.975L595.276 161.71L595.143 162.112L595.076 162.914L594.942 163.382L594.34 163.716L594.139 163.917L594.005 164.451L594.139 165.32V165.722L593.671 166.123L593.002 166.724L592.6 167.259L593.069 167.46L593.938 167.593L594.607 167.994L595.209 168.529L595.745 169.198L596.146 169.799L596.414 170.535L596.681 171.27L596.815 172.808L596.949 173.409V174.145L596.748 175.081L596.949 175.415V175.816L596.748 176.819V177.821L596.614 178.089L596.146 178.557L596.012 178.824L596.146 179.961L596.614 180.963L597.685 182.635L598.019 184.373L598.153 185.242L597.952 186.111L597.484 186.913L596.681 187.916L596.28 188.718L595.945 190.055L595.745 190.523L595.076 191.459L594.875 191.927L594.674 192.796L594.875 195.002L594.607 195.737L593.938 196.138L593.069 196.272H592.333L591.864 196.673L591.664 197.609V198.946L591.864 199.08L591.998 199.481V199.949L591.463 200.283L591.597 200.684L592.868 202.355L592.935 202.556L592.801 203.425L592.868 203.759L593.202 204.16L592.333 205.297L592.132 205.898L591.931 207.703L591.396 209.241L591.195 210.511L590.66 211.247L590.593 211.781L590.794 213.386L590.66 214.856L590.393 216.26L589.322 216.595L589.122 217.33L588.453 218.533L587.315 219.402L586.713 220.138L586.646 221.14L586.78 222.21L586.646 223.213L586.312 223.681L585.91 223.814L585.442 223.748L584.974 223.814L584.505 224.082L584.104 224.75L582.498 226.555L581.829 226.956L580.96 227.224L579.087 227.491L578.217 227.959L577.749 228.828L578.083 228.895L578.418 229.029L578.618 229.296L578.886 230.299L579.22 230.633L580.09 231.034L580.491 231.368L580.826 231.903L581.361 232.973L583.903 236.315L584.305 237.118L575.808 237.585L576.009 238.521L575.474 239.056L573.868 239.992L572.597 241.195L571.527 242.666L570.59 244.605L570.323 246.477L570.39 247.011Z" fill="#F6F7F9" stroke="#C4CEDC" stroke-width="2" stroke-linecap="round" stroke-linejoin="round"/>
<path d="M475.191 83.8303L470.976 86.4375L469.705 87.7745V89.6463L469.304 91.3175L468.701 92.7883L470.039 93.7242L485.56 94.4595L486.229 95.3286L486.631 96.7993L487.433 98.6042L490.578 101.546L491.514 103.484L491.715 105.222L490.979 106.626L490.043 107.763L489.775 108.498L489.708 109.367L489.374 110.704L488.102 112.442L486.029 118.592L484.624 120.331L484.824 121.801L486.497 123.005L487.433 124.074L488.102 125.277L489.039 125.144L489.507 123.807L489.976 123.606L490.243 124.743L490.979 125.812L492.116 126.347L492.25 127.35L490.176 129.556L489.976 130.759L490.377 131.428L491.648 132.163L491.916 133.5L490.778 136.909L489.44 138.113L486.831 138.781L477.265 137.31L454.385 124.542L448.832 124.275L440.537 131.093L438.53 133.701L438.262 135.706L438.53 137.244L438.396 138.38L433.111 139.316L431.438 138.647L428.093 138.046L426.153 137.444L422.273 134.035L418.125 129.422L417.523 128.085L417.657 127.216L418.259 124.609L418.46 121.668L418.259 120.531L417.858 119.729L418.058 119.06L418.928 118.392L420.935 117.79L421.336 116.787L419.664 116.052L418.259 116.32L415.851 114.581L410.565 107.562L411.636 106.559L414.178 102.08L416.653 101.011L417.724 100.075L418.794 99.607L419.731 99.4733L423.745 98.0694L425.685 95.3954L425.016 92.7214L423.611 91.6518L422.005 90.8496L420.801 89.4457L420.734 87.4402L421.403 84.6325L421.47 83.5629L421.069 81.758L420.935 80.1536L421.203 78.8834L420.935 75.8083L422.005 76.2762L422.607 76.3431L425.551 75.8751L426.086 75.474L426.421 74.7387L426.555 73.9365L426.421 73.2011L425.484 72.0647L425.685 71.463L427.826 69.4575L429.03 68.6553L430.301 68.1874L433.445 68.0537L434.047 68.1874L434.984 68.8559L435.452 69.0564L435.987 68.9896L438.73 67.7194L440.403 67.452L440.737 67.5189L442.075 68.6553L443.279 69.3238L443.815 69.4575L449.033 70.4603L450.371 71.0619L451.107 71.1288L451.709 70.7945L452.177 70.3934L453.314 69.5912L453.716 69.1901L454.452 67.9868L454.853 67.5189L455.455 67.2515H456.191L456.927 67.452L457.328 67.7194L457.395 68.3211L457.596 68.7222L458.399 70.0592L459.001 71.5967L459.402 72.1984L460.54 73.4685L460.941 74.7387L461.677 75.8083L461.878 76.6105L461.744 77.3458L461.075 79.6188L461.945 80.8221L466.895 82.7607L467.497 82.6939L468.032 82.5602L468.568 82.4265L469.17 82.4933L470.909 83.0281H472.649L473.117 82.8944H473.652L474.12 83.1618L474.589 83.5629L475.191 83.8303Z" fill="#F6F7F9" stroke="#C4CEDC" stroke-width="2" stroke-linecap="round" stroke-linejoin="round"/>
<path d="M527.64 592.159L527.44 591.224L528.376 590.822L528.51 589.619L527.841 589.285L527.573 588.951L526.369 586.878L525.767 586.277L525.299 585.675L525.031 584.873L524.496 584.204L523.426 583.803L522.69 583.001L522.489 581.597L521.419 579.792L514.862 573.976L513.591 573.174L513.123 572.973L512.989 572.305L513.19 571.102L513.792 570.099L514.193 569.898L514.862 568.227L515.063 566.756V564.417L515.464 563.414L515.933 562.812L515.866 561.542L516.535 560.74L517.07 559.269L516.802 557.732L515.598 556.328L514.996 554.122L515.799 552.317L516.936 550.98V549.643L515.799 548.64L515.264 547.771L516.2 546.1L517.204 543.158L515.331 539.481L512.722 536.406L511.986 533.799L512.119 531.326L511.986 529.855L511.183 526.579V522.702L515.13 507.126L515.598 502.647L515.331 489.076L519.345 483.862L520.415 480.319L519.211 478.313L516.334 476.174L515.063 474.169L517.07 473.099L521.017 471.762L529.045 467.083L530.584 465.812L531.587 464.743L531.654 463.272L531.32 461.735L530.316 459.595L530.249 456.387L529.781 453.713L530.249 451.172L533.126 446.76L534.196 442.816L534.33 439.407L533.126 430.984L531.721 427.507L530.182 426.438L529.38 425.636L529.647 422.293L536.739 389.269L537.876 388.734L563.766 381.381L565.706 381.715L566.911 383.052L567.713 383.654L570.925 384.523L575.139 387.665L580.625 395.419L583.435 397.893L588.118 397.692L589.322 397.224L589.857 396.422L589.924 395.152L588.118 387.397L587.984 384.322L588.72 373.76L590.392 367.877L592.6 362.529L593.068 357.649L592.466 355.309L605.11 357.181L610.998 357.983L611.867 358.384L612.536 358.919L613.807 360.457L614.008 361.259L613.807 362.997V363.799L614.142 364.601L615.079 366.139L615.346 367.075L615.413 368.211L615.48 368.612L616.082 369.949L616.483 371.219L616.684 372.022V372.824L616.417 373.693L615.748 375.03L615.948 375.498L616.082 378.239L615.748 378.64V379.375L615.881 379.643L615.279 380.244L604.107 393.815L595.544 403.976L587.382 413.803L582.699 419.218L587.315 424.7L594.942 433.791L597.751 437.201L598.42 437.735L599.156 438.07L599.758 438.471L600.093 439.474L600.026 440.276L599.625 441.68V442.415L599.959 443.217L601.03 444.42L601.498 445.156L601.565 445.557L601.699 446.56L601.899 447.028L602.234 447.429L602.903 447.562L603.237 447.763L603.572 448.365L603.772 449.033L604.04 449.568L604.642 449.835L604.977 450.103L605.044 450.437L604.977 450.838L604.375 451.44V451.908L605.11 452.309L605.445 452.643L605.779 453.044L607.251 456.387L607.452 457.122L607.519 457.79L607.72 458.392L608.723 459.529L609.66 461.668L610.663 462.938L614.276 466.214L615.681 468.019L617.888 470.091L618.959 471.361L619.628 471.695L621.702 472.297L623.374 473.233L624.378 473.567L626.719 473.768L627.79 474.035L630.666 475.305L635.215 476.241L636.219 476.709L636.62 477.177L636.888 477.712L637.222 478.18L637.825 478.514L638.36 478.715L638.761 478.915L638.962 479.316L639.229 480.052L639.698 480.854L641.905 483.26L642.574 483.661L648.261 482.525L648.997 482.993L649.198 484.397L648.127 492.887L649.666 499.304L650.335 506.792L650.87 512.407L650.669 514.012L648.863 518.089L649.532 518.958L649.666 519.36L649.599 519.961L649.465 520.563L649.264 520.964L648.93 521.231L648.395 521.298L649.867 522.635L650.402 522.903H650.669L651.138 522.635H651.673L652.476 523.103L653.546 523.371L654.483 523.304L656.49 522.903L657.426 522.769L659.233 522.167H660.169H661.173L663.046 521.566L663.38 521.632L663.849 521.766L664.718 522.568L665.12 522.836L665.989 523.17L666.257 523.371L666.658 523.772L667.127 524.507L668.331 527.114L667.729 526.847H666.993L666.324 527.181L665.923 527.783L665.789 528.184L665.454 528.719L665.254 529.12V529.521L665.387 533.933L665.722 534.668L666.123 535.27L666.458 535.938L666.324 536.607L665.789 537.075L664.384 537.342L663.849 537.61L663.581 538.211L663.313 543.827L662.912 545.431L662.176 546.166H661.842L660.972 545.698L660.637 545.632L659.634 545.899L658.296 545.832L656.958 545.632L648.729 545.431L648.395 545.565L648.127 545.899L647.726 546.568L646.99 546.969L645.919 547.236H645.585L644.849 546.969L644.581 547.102L643.979 547.637L643.31 547.905L637.49 548.506L636.888 548.84L636.62 549.308L636.42 549.509L636.085 549.576H635.349L634.68 549.71L634.011 550.177L633.275 550.512L633.008 550.645L632.807 550.98L632.74 551.314L633.008 551.982L632.606 552.651L631.536 553.721L631.335 554.255L631.469 555.124L631.804 555.86L631.87 556.395L631.135 556.796L629.797 556.595L628.258 556.06L626.987 555.86L626.385 556.796L626.251 557.732L625.916 558.133L624.511 558.4L623.776 558.601L623.173 558.935L621.902 559.737L617.755 560.94L616.885 561.609L616.417 562.612L616.149 563.815L615.547 568.227L614.41 576.516L614.209 577.185L613.674 577.853L613.072 577.987H612.403L611.667 578.121L610.931 579.19L611.131 580.594L611.466 582.065L611.399 583.402L610.663 584.204L610.462 584.605L610.329 585.14L609.526 597.708L608.455 600.85L608.255 600.315L608.188 599.713L607.586 599.246L607.251 598.911L606.917 599.112L606.85 599.312L606.783 599.981L606.716 600.181L607.385 600.917L606.649 600.85L606.114 600.649H605.512L604.776 601.184L605.646 601.452L605.98 601.652L606.248 601.986L606.047 602.387L605.512 603.056L605.311 603.791L605.044 604.059L604.508 604.326L602.635 604.928L603.17 605.262L602.368 606.332L596.547 604.326L594.473 603.925L594.54 603.257L594.005 602.321L589.188 600.583L583.502 599.647L578.685 598.51L575.407 598.109L574.872 597.775L575.407 597.307L574.537 596.104L574.47 595.569L574.403 593.43L574.336 593.095L573.065 591.825L572.53 591.491L571.928 591.424L571.326 591.491L568.918 592.226L568.315 592.561L567.981 593.095L567.178 594.165L567.446 595.435L568.182 595.769H568.516L569.185 596.505H568.784L569.787 597.039L569.653 597.507L569.252 597.441L566.777 596.371L566.041 595.97H564.569L563.566 595.168L564.034 594.432L563.499 594.165L562.897 594.098L561.625 594.165L560.488 594.432L560.154 594.767L560.287 595.168L561.023 595.702L560.756 596.371H559.819L559.15 595.903L558.749 595.769L557.545 595.636L557.277 595.435L556.876 594.9L556.34 594.633L555.069 594.7L553.33 594.967L551.457 595.034L550.186 595.97L548.714 595.502L547.309 594.098L545.703 593.697L541.756 593.964H540.151L537.541 593.296L535.869 591.625L534.665 590.956L532.658 591.357L527.64 592.159Z" fill="#F6F7F9" stroke="#C4CEDC" stroke-width="2" stroke-linecap="round" stroke-linejoin="round"/>
<path d="M478.603 347.621L518.007 365.47L522.957 369.147L536.739 389.269L529.647 422.293L529.38 425.635L530.182 426.438L531.721 427.507L533.126 430.983L534.33 439.407L534.196 442.816L533.126 446.76L530.249 451.172L529.781 453.713L530.249 456.387L530.316 459.595L531.32 461.735L531.654 463.272L531.587 464.743L530.584 465.812L529.045 467.083L521.017 471.762L517.07 473.099L515.063 474.169L516.334 476.174L519.211 478.313L520.415 480.319L519.345 483.862L515.331 489.076L515.598 502.647L515.13 507.126L511.183 522.702V526.579L511.986 529.855L512.119 531.326L511.986 533.799L512.722 536.406L515.331 539.481L517.204 543.158L516.2 546.1L515.264 547.771L515.799 548.64L516.936 549.643V550.98L515.799 552.317L514.996 554.122L515.598 556.328L516.802 557.731L517.07 559.269L516.535 560.74L515.866 561.542L515.933 562.812L515.464 563.414L515.063 564.416V566.756L514.862 568.227L514.193 569.898L512.788 567.759L512.32 567.358H511.317L509.979 566.823L508.975 567.09L507.972 568.16L506.5 568.361L504.76 568.294L503.356 567.96L502.753 566.89L502.687 565.687L502.285 564.884L502.218 564.082L502.553 563.414L502.62 563.013L501.951 562.545L499.81 562.21L498.472 561.609L497.268 561.341L496.063 561.943L494.19 562.077L491.38 561.609L486.764 561.876L486.697 561.141L487.433 560.272L487.835 558.133V556.996L487.634 555.86L488.437 548.306L488.905 547.169L489.507 546.367L489.708 545.698V544.763L488.838 542.222L488.905 541.487H489.641L491.782 542.824L492.116 542.089L491.113 539.949L489.039 537.61L486.497 535.404L484.088 534L481.814 533.933L480.409 534.869L479.606 536.072L477.934 537.61L476.93 537.275L474.589 535.537L463.885 529.855L463.149 527.582L462.078 513.076L461.008 510L460.071 508.062L459.202 507.594L458.399 506.457L459.001 505.254L459.937 504.452L459.737 502.513L458.131 500.107L456.592 498.368L455.79 496.831L454.385 495.026L452.578 494.09L451.508 493.956L450.839 493.355L450.371 492.486L449.1 486.402L449.367 482.391L449.1 481.79L445.487 479.985L443.614 479.918L442.075 481.188L441.005 482.458L437.258 486.068L433.177 488.074L430.97 488.475L426.822 487.806L423.276 485.667L420.333 482.926L417.255 478.982L416.519 475.105L417.389 472.163L416.72 457.189L415.717 455.718L414.713 455.852L410.632 457.79L403.675 463.005L401.935 463.473L400.396 462.737L398.858 461.668L397.386 459.662L394.242 457.256L388.02 455.451L385.076 455.25L378.119 437.869L376.045 437L368.151 436.265L366.612 435.329L365.809 434.46L365.006 433.123L364.605 431.585L361.795 425.769L360.859 422.627V421.825L362.397 421.156L362.732 420.822L366.277 420.421L367.348 419.619L367.281 418.482L366.813 416.945L366.478 414.672L366.88 401.703L365.809 400.901L364.672 399.564L363.869 395.553L361.795 390.205L359.855 386.528L359.788 384.523L360.524 381.581L362.13 378.573L365.207 375.164L384.608 371.687L389.023 371.888L391.9 372.423L398.389 371.554L404.277 368.946L404.812 366.139L405.213 353.437L406.752 350.095L425.149 340.401L427.558 337.794L434.783 333.716L436.389 332.045L437.125 330.909L441.54 331.644L478.603 347.621Z" fill="#F6F7F9" stroke="#C4CEDC" stroke-width="2" stroke-linecap="round" stroke-linejoin="round"/>
<path d="M235.354 152.351L241.108 153.488L243.315 154.357L243.917 155.226L245.255 156.496L246.66 157.098L252.347 158.368L254.621 160.975L254.488 162.847V165.254L252.547 166.457L249.738 166.123L246.928 167.125L244.854 169.532L244.72 172.273L244.319 174.345L241.241 174.546L240.238 177.086L238.432 179.359L236.224 180.696L235.287 182.835L233.682 182.969L232.745 184.974L231.742 185.108L231.541 183.704V181.364L230.203 179.76H228.263L227.794 180.897L229.132 182.768V183.504L228.798 184.105L227.928 183.571L225.921 181.766L222.509 180.83L219.031 180.562L217.559 180.228L216.823 179.025L215.886 177.019L215.619 175.749L216.087 174.078L217.96 172.206L224.985 168.797L226.122 167.66L226.59 166.056L228.196 162.646L229.333 158.903L227.728 157.566L225.252 156.83L223.981 155.694L222.242 153.287L223.245 151.75L227.125 151.482L235.354 152.351Z" fill="#F6F7F9" stroke="#C4CEDC" stroke-width="2" stroke-linecap="round" stroke-linejoin="round"/>
</g>
<defs>
<clipPath id="clip0_3068_1867">
<rect width="669" height="607" fill="white"/>
</clipPath>
</defs>
</svg>
